<?xml version="1.0" encoding="UTF-8"?>
<svg id="Layer_2" data-name="Layer 2" xmlns="http://www.w3.org/2000/svg" viewBox="0 0 369 368.17">
  <defs>
    <style>
      .cls-1 {
        fill: #72b79e;
      }

      .cls-2 {
        fill: #efe9da;
      }

      .cls-3 {
        fill: #82b7e2;
      }

      .cls-4 {
        fill: #fff;
      }

      .cls-5 {
        fill: #c2c7c7;
      }

      .cls-6 {
        fill: #abb2b2;
      }

      .cls-7 {
        fill: #e2b87c;
      }

      .cls-8 {
        fill: #476c9e;
      }

      .cls-9 {
        fill: #1a1a1a;
      }

      .cls-10 {
        fill: #b77945;
      }

      .cls-11 {
        fill: #ffd368;
      }

      .cls-12 {
        fill: #f65e66;
      }

      .cls-13 {
        fill: #ff975c;
      }

      .cls-14 {
        fill: #ffc9c9;
      }
    </style>
  </defs>
  <g id="Layer_1-2" data-name="Layer 1">
    <g>
      <ellipse class="cls-2" cx="184.5" cy="184.09" rx="184.5" ry="184.09"/>
      <g>
        <g>
          <polygon class="cls-13" points="236.89 105.57 244.33 105.57 244.33 98.58 236.89 98.58 229.45 98.58 229.45 102.46 229.24 102.46 233.32 105.57 236.89 105.57"/>
          <rect class="cls-13" x="229.45" y="91.01" width="7.15" height="6.98"/>
          <polygon class="cls-13" points="236.59 106.16 234.09 106.16 236.59 108.07 236.59 106.16"/>
          <polygon class="cls-13" points="244.33 90.42 244.33 83.43 229.45 83.43 229.45 90.42 236.89 90.42 244.33 90.42"/>
          <polygon class="cls-10" points="179.17 65.43 80.55 140.72 85.9 146.07 179.17 76.22 179.17 65.43"/>
          <polygon class="cls-10" points="90.96 273.26 98.53 273.26 98.53 192.47 98.53 184.31 98.53 145.13 98.53 137.35 90.96 143.01 90.96 273.26"/>
          <rect class="cls-13" x="252.67" y="106.16" width="7.15" height="6.98"/>
          <polygon class="cls-13" points="252.07 113.14 252.07 106.16 244.63 106.16 237.19 106.16 237.19 108.52 243.24 113.14 244.63 113.14 252.07 113.14"/>
          <polygon class="cls-13" points="259.81 121.31 253.94 121.31 259.81 125.8 259.81 121.31"/>
          <polygon class="cls-13" points="237.19 97.99 244.63 97.99 252.07 97.99 252.07 91.01 244.63 91.01 237.19 91.01 237.19 97.99"/>
          <polygon class="cls-13" points="259.81 113.74 252.37 113.74 244.63 113.74 244.02 113.74 253.17 120.72 259.81 120.72 259.81 113.74"/>
          <rect class="cls-13" x="252.67" y="91.01" width="7.15" height="6.98"/>
          <polygon class="cls-13" points="259.81 98.58 252.37 98.58 244.93 98.58 244.93 105.57 252.37 105.57 259.81 105.57 259.81 98.58"/>
          <path class="cls-11" d="M138.97,236.17c1.52,0,2.75-1.23,2.75-2.75s-1.23-2.75-2.75-2.75-2.75,1.23-2.75,2.75,1.23,2.75,2.75,2.75Z"/>
          <polygon class="cls-13" points="259.81 90.42 259.81 83.43 244.93 83.43 244.93 90.42 252.37 90.42 259.81 90.42"/>
          <polygon class="cls-10" points="260.41 145.13 260.41 184.31 260.41 192.47 260.41 273.26 267.97 273.26 267.97 143.01 260.41 137.35 260.41 145.13"/>
          <polygon class="cls-10" points="99.12 144.84 148.1 144.84 156.26 144.84 259.81 144.84 259.81 137.27 99.12 137.27 99.12 144.84"/>
          <rect class="cls-10" x="156.56" y="184.6" width="103.26" height="7.57"/>
          <path class="cls-4" d="M276.61,49.99h-8.59c-4.6,0-8.64,2.95-10.04,7.33-.95,2.97-3.12,5.42-5.96,6.72l-.95.44c-3.73,1.71-6.14,5.48-6.14,9.58v4.39l2.72-2.62c2.97-2.86,6.88-4.44,11.01-4.44h17.96c5.81,0,10.54-4.73,10.54-10.54v-.32c0-5.81-4.73-10.54-10.54-10.54Z"/>
          <polygon class="cls-10" points="179.76 76.22 273.04 146.07 278.39 140.72 179.76 65.43 179.76 76.22"/>
          <polygon class="cls-10" points="148.4 192.47 148.4 273.26 155.96 273.26 155.96 145.43 148.4 145.43 148.4 192.47"/>
          <path class="cls-11" d="M99.12,273.26h48.68v-80.5h-48.68v80.5ZM138.97,230.08c1.84,0,3.34,1.5,3.34,3.34s-1.5,3.34-3.34,3.34-3.34-1.5-3.34-3.34,1.5-3.34,3.34-3.34ZM110.71,202.25c0-.16.13-.3.3-.3h24.92c.16,0,.3.13.3.3v17.42c0,.16-.13.3-.3.3h-24.92c-.16,0-.3-.13-.3-.3v-17.42Z"/>
          <path class="cls-1" d="M135.63,202.54h-24.33v16.83h24.33v-16.83ZM126.88,214.56l-.42-.42,3.86-3.86.42.42-3.86,3.86ZM121.58,216.32l-.42-.42,9.84-9.84.42.42-9.84,9.84Z"/>
          <rect class="cls-10" x="99.12" y="184.6" width="48.68" height="7.57"/>
          <path class="cls-9" d="M279.01,140.45l-18.61-14.21v-43.11c0-.16-.13-.3-.3-.3h-30.96c-.16,0-.3.13-.3.3v19.03l-49.21-37.56h0s-.03-.02-.05-.03c-.1-.05-.22-.04-.31.03l-99.37,75.86c-.07.05-.11.13-.12.22,0,.09.03.17.09.23l5.77,5.77c.06.06.13.09.21.09.06,0,.12-.02.18-.06l4.32-3.24v130.1c0,.16.13.3.3.3h65.59c.16,0,.3-.13.3-.3v-80.8h103.26v80.8c0,.16.13.3.3.3h8.16c.16,0,.3-.13.3-.3v-130.1l4.32,3.24c.05.04.12.06.18.06.08,0,.15-.03.21-.09l5.77-5.77c.06-.06.09-.14.09-.23,0-.09-.05-.16-.12-.22ZM244.93,83.43h14.89v6.98h-14.89v-6.98ZM253.17,120.72l-9.15-6.98h15.8v6.98h-6.65ZM259.81,121.31v4.48l-5.87-4.48h5.87ZM243.24,113.14l-6.05-4.62v-2.36h14.89v6.98h-8.83ZM252.67,113.14v-6.98h7.15v6.98h-7.15ZM252.37,105.57h-7.44v-6.98h14.89v6.98h-7.44ZM252.67,97.99v-6.98h7.15v6.98h-7.15ZM252.07,91.01v6.98h-14.89v-6.98h14.89ZM229.45,83.43h14.89v6.98h-14.89v-6.98ZM229.45,91.01h7.15v6.98h-7.15v-6.98ZM229.45,102.46v-3.87h14.89v6.98h-11.02l-4.07-3.11h.2ZM236.59,106.16v1.91l-2.5-1.91h2.5ZM179.47,76.74l80.04,59.94H99.42l80.04-59.94ZM98.53,145.13v128.13h-7.57v-130.25l7.57-5.67v7.79ZM85.9,146.07l-5.35-5.35,98.62-75.29v10.79l-93.27,69.84ZM147.8,273.26h-48.68v-80.5h48.68v80.5ZM147.8,192.17h-48.68v-7.57h48.68v7.57ZM147.8,184.01h-48.68v-38.58h48.68v38.58ZM155.96,273.26h-7.57v-127.83h7.57v127.83ZM259.81,192.17h-103.26v-7.57h103.26v7.57ZM259.81,184.01h-103.26v-38.58h103.26v38.58ZM259.81,144.84H99.12v-7.57h160.69v7.57ZM267.97,273.26h-7.57v-135.92l7.57,5.67v130.25ZM273.04,146.07l-93.27-69.84v-10.79l98.62,75.29-5.35,5.35Z"/>
          <path class="cls-9" d="M111,219.96h24.92c.16,0,.3-.13.3-.3v-17.42c0-.16-.13-.3-.3-.3h-24.92c-.16,0-.3.13-.3.3v17.42c0,.16.13.3.3.3ZM111.3,202.54h24.33v16.83h-24.33v-16.83Z"/>
          <path class="cls-9" d="M138.97,236.76c1.84,0,3.34-1.5,3.34-3.34s-1.5-3.34-3.34-3.34-3.34,1.5-3.34,3.34,1.5,3.34,3.34,3.34ZM138.97,230.67c1.52,0,2.75,1.23,2.75,2.75s-1.23,2.75-2.75,2.75-2.75-1.23-2.75-2.75,1.23-2.75,2.75-2.75Z"/>
          <path class="cls-9" d="M276.61,49.39h-8.59c-4.86,0-9.12,3.11-10.61,7.74-.9,2.81-2.96,5.13-5.64,6.37l-.95.44c-3.94,1.81-6.49,5.78-6.49,10.12v5.09c0,.12.07.23.18.27.04.02.08.02.12.02.08,0,.15-.03.21-.08l3.22-3.1c2.86-2.76,6.62-4.27,10.59-4.27h17.96c6.14,0,11.14-5,11.14-11.14v-.32c0-6.14-5-11.14-11.14-11.14ZM287.16,60.85c0,5.81-4.73,10.54-10.54,10.54h-17.96c-4.13,0-8.03,1.58-11.01,4.44l-2.72,2.62v-4.39c0-4.11,2.41-7.87,6.14-9.58l.95-.44c2.84-1.3,5.01-3.75,5.96-6.72,1.4-4.38,5.44-7.33,10.04-7.33h8.59c5.81,0,10.54,4.73,10.54,10.54v.32Z"/>
          <rect class="cls-9" x="119.33" y="210.89" width="13.92" height=".59" transform="translate(-112.34 151.15) rotate(-45)"/>
          <rect class="cls-9" x="125.87" y="212.12" width="5.46" height=".59" transform="translate(-112.53 153.13) rotate(-45)"/>
        </g>
        <g>
          <polygon class="cls-7" points="259.81 130.81 180.44 72.45 92.96 130.81 92.96 184.01 259.81 184.01 259.81 130.81"/>
          <g>
            <path class="cls-11" d="M71.78,210.75h-.19c-2.16,0-3.77.64-4.68,1.84-.43.58-.61,1.15-.68,1.49h9.21c-.12-1.88-1.68-3.33-3.66-3.33Z"/>
            <path class="cls-11" d="M69.57,215.73h5.94c.27,0,.49-.22.49-.49v-.07c0-.27-.22-.49-.49-.49h-9.64c-.27,0-.49.22-.49.49v.07c0,.27.22.49.49.49h3.47c.08,0,.16,0,.24,0Z"/>
            <path class="cls-12" d="M68.86,218.42c-.27-.19-.47-.42-.6-.68-.24-.47-.22-1.03.04-1.43h-2.1c-.07,1.28.63,2.4.93,2.81l1.74-.71Z"/>
            <path class="cls-12" d="M70.73,216.7l.24.75.4-.05.3-1.08h-1.15c.07.1.14.21.2.33,0,.01.01.03.02.04Z"/>
            <path class="cls-8" d="M62.49,247.96c.02-.21-.05-.41-.19-.56-.14-.15-.33-.24-.54-.24h-1.02l-.09,1.45h1.78l.06-.65Z"/>
            <path class="cls-3" d="M67.03,230.66l.94-3.04.57.18-1.21,3.89,4.26-.73.42-.31-1.29-3.91c-.34-.38-.86-.55-1.36-.41l-1.03.28c-.15.04-.31-.04-.36-.19l-.46-1.4c-.02-.07-.02-.16.02-.23s.1-.12.17-.15l.86-.28c-1.12-.44-1.66-1.19-1.89-1.62-1.71,1.08-2.96,2.86-3.44,4.9l-.57,2.42c.78.17,2.96.62,4.37.59Z"/>
            <path class="cls-13" d="M71.36,226.77l1.15,3.5.12-.08c.3-.22.65-.35,1.01-.37l-1.13-3.42-1.15.38Z"/>
            <path class="cls-8" d="M62.02,253.1l.35-3.89h-1.76l-.28,4.56h.96c.38,0,.7-.29.73-.67Z"/>
            <path class="cls-3" d="M73.65,225.71c.02.07.02.16-.02.23-.04.07-.1.12-.17.15l-.39.13,1.21,3.67c.07.02.13.04.2.06.15.06.29.14.42.23.47-1.16,1.46-2.58,1.87-3.13l-2.47-1.95-.76.25.12.37Z"/>
            <rect class="cls-8" x="73.12" y="223.41" width=".67" height="1.3" transform="translate(-66.45 34.26) rotate(-18.24)"/>
            <path class="cls-14" d="M75.29,217.77c-.31-.46-.33-.93-.34-1.37,0-.03,0-.05,0-.08h-2.67l-.4,1.43c-.03.12-.13.2-.25.21l-.84.1c-.14.02-.28-.07-.32-.2l-.3-.97c-.21-.41-.44-.55-.64-.57h-.18c-.08.01-.15.04-.19.05-.03.01-.05.02-.08.03-.09.04-.17.09-.22.15-.21.21-.24.6-.07.91.19.37.58.59.87.72.11.05.18.16.18.27,0,.12-.07.23-.18.27l-2.35.96-.2,2.57c.11.26.67,1.42,2.46,1.76l1.32-.44.15-1.57c.02-.16.16-.28.32-.27.91.08,1.84-.35,2.38-1.08-.5-.06-1.06-.33-1.31-1.11l.56-.18c.24.74.85.74,1.11.7.26-.47.54-.95,1.07-1.24.14-.08.24-.16.31-.26.21-.3.14-.39-.05-.64-.04-.06-.09-.11-.13-.18ZM73.74,217.63c-.25.02-.47-.16-.49-.41-.02-.25.16-.47.41-.49.25-.02.47.16.49.41.02.25-.16.47-.41.49Z"/>
            <path class="cls-4" d="M68.45,225.96l.76-.21c.17-.05.34-.07.51-.07.5,0,.99.2,1.36.56l1.92-.63-.62-1.88-4.2,1.38.28.85Z"/>
            <path class="cls-14" d="M74.94,233.28l.17-1.37c.08-.61-.27-1.2-.85-1.42-.43-.17-.91-.1-1.28.17l-1.09.8s-.08.05-.13.05l-8.29,1.43-.1-.58,3.31-.57.17-.54c-1.49,0-3.56-.44-4.32-.61l-.93,3.93c-.26,1.1.39,2.2,1.48,2.5.37.1.76.1,1.13,0l8.24-2.36s.02,0,.03,0l1.37-.25c.58-.11,1.02-.57,1.09-1.16Z"/>
            <path class="cls-13" d="M74.07,235l.62,1.88,1.15-.38-.72-2.17c-.26.33-.63.57-1.05.67Z"/>
            <path class="cls-3" d="M64.38,237.63c-.24.07-.49.1-.74.1s-.47-.03-.71-.09c-.23-.06-.44-.15-.64-.26l-.43,2.82h9.88l.54-4.83-7.9,2.27Z"/>
            <path class="cls-14" d="M87.39,225.66c-.24-.18-.37-.12-.66.04-.27.14-.71.39-1.16-.07-.39-.39-.38-.76-.3-1.01.19-.58.94-.96,1.6-1.08.23-.04.4-.24.4-.47,0-.15-.06-.28-.18-.37-.11-.09-.26-.13-.4-.1-2.31.47-2.85,1.78-2.9,2.8,0,.09-.05.18-.13.23l-4.36,3.02c-.05.19-.15.7-.11,1.44l-.59.03c-.04-.73.05-1.27.11-1.54l-1.49-1.18c-.43.59-1.5,2.13-1.87,3.22.24.34.37.75.36,1.18l1.94,1.39c.8.57,1.87.48,2.56-.22l5.39-5.48s.03-.03.05-.04c.84-.56,1.76-1.39,1.77-1.75,0-.02,0-.03-.03-.06Z"/>
            <path class="cls-8" d="M61.75,240.79c-.51,1.89-.84,3.83-.98,5.78h.98c.37,0,.73.16.98.43.25.27.38.64.34,1.01l-.47,5.14c-.06.69-.63,1.21-1.32,1.21h-.99l-.79,13.09h4.18l4.75-23.92.58.12-1.39,7.01,5.43,16.79h4.22l-2.71-13.09h-1.05c-.63,0-1.16-.43-1.29-1.04l-1.14-5.14c-.09-.39,0-.8.26-1.12.25-.32.63-.5,1.03-.5h.58l-1.2-5.78h-10.02Z"/>
            <path class="cls-1" d="M63.34,271.01c-.09,0-.17-.04-.23-.11-.06-.07-.08-.16-.06-.25l.52-2.63h-4.1l-.18,3.02v2.21h5.9c.12-.02.44-.46.4-1.02-.07-.79-.87-1.23-2.24-1.23,0,0,0,0,0,0Z"/>
            <path class="cls-8" d="M72.81,253.19c.08.34.37.57.72.57h.93l-.94-4.56h-1.58l.89,3.99Z"/>
            <path class="cls-8" d="M71.81,247.44c-.14.17-.19.4-.14.62l.12.56h1.59l-.3-1.45h-.7c-.22,0-.43.1-.57.27Z"/>
            <path class="cls-1" d="M74.2,270.96s.01.06.01.09v2.22h5.9c.12-.02.44-.46.4-1.02-.07-.79-.87-1.23-2.24-1.23,0,0,0,0,0,0-.14,0-.26-.1-.29-.24l-.57-2.74h-4.15l.94,2.92Z"/>
            <path class="cls-9" d="M73.65,216.73c-.25.02-.43.24-.41.49.02.25.24.43.49.41.25-.02.43-.24.41-.49-.02-.25-.24-.43-.49-.41Z"/>
            <path class="cls-9" d="M87.75,225.18c-.55-.42-1-.17-1.3-.01-.29.16-.33.16-.45.04-.22-.22-.17-.36-.16-.41.09-.28.59-.58,1.14-.67.51-.09.89-.53.89-1.06,0-.32-.14-.63-.39-.83-.25-.2-.57-.28-.89-.22-2.69.55-3.27,2.18-3.36,3.21l-4.15,2.87-4.47-3.52-.56-1.71c-.05-.16-.22-.24-.37-.19l-1.2.39-.97.32.1-1.03c1.03-.01,2.04-.53,2.64-1.36.14-.2.26-.41.37-.61.23-.42.46-.81.85-1.03.22-.12.39-.27.51-.44.47-.66.13-1.09-.08-1.35-.04-.05-.07-.09-.11-.14-.22-.32-.23-.64-.24-1.06,0-.02,0-.04,0-.06.58-.02,1.05-.5,1.05-1.08v-.07c0-.41-.22-.76-.55-.95-.04-2.28-1.9-4.06-4.26-4.06h-.19c-4.9,0-5.8,3.05-5.96,3.95-.48.11-.84.54-.84,1.06v.07c0,.51.35.93.82,1.05-.09,1.6.83,2.93,1.11,3.3l-.2,2.55s-.05.03-.08.05c-1.88,1.16-3.26,3.09-3.78,5.32l-1.63,6.94c-.22.95.08,1.9.73,2.53l-.53,3.46c-.58,2.09-.94,4.25-1.07,6.41l-1.46,24.18s0,.01,0,.02v2.51c0,.16.13.3.3.3h6.2c.27,0,.54-.2.74-.54.25-.43.41-1.17.03-1.82-.26-.45-.87-.99-2.26-1.07l3.69-18.58,6.23,19.25v2.47c0,.16.13.3.3.3h6.2c.27,0,.54-.2.74-.54.25-.43.41-1.17.03-1.82-.27-.47-.9-1.02-2.38-1.07l-6.2-29.95.59-5.26.59-.11.74,2.23c.04.12.16.2.28.2.03,0,.06,0,.09-.02l1.71-.56c.07-.02.14-.08.17-.15.04-.07.04-.15.02-.23l-1-3.03c.02-.07.03-.13.04-.2l.11-.87,1.67,1.2c.45.33.98.49,1.5.49.67,0,1.33-.26,1.83-.77l5.37-5.46c.11-.07.52-.36.95-.72.7-.6,1.05-1.09,1.06-1.48,0-.22-.09-.41-.27-.55ZM74.29,225.09l2.47,1.95c-.4.55-1.4,1.97-1.87,3.13-.13-.09-.27-.17-.42-.23-.06-.02-.13-.05-.2-.06l-1.21-3.67.39-.13c.07-.02.14-.08.17-.15.04-.07.04-.15.02-.23l-.12-.37.76-.25ZM73.63,229.81c-.36.03-.71.15-1.01.37l-.12.08-1.15-3.5,1.15-.38,1.13,3.42ZM73.57,223.34l.41,1.23-.63.21-.41-1.23.63-.21ZM72.37,223.73l.62,1.88-1.92.63c-.36-.36-.85-.56-1.36-.56-.17,0-.34.02-.51.07l-.76.21-.28-.85,4.2-1.38ZM75.48,218.59c-.07.1-.17.19-.31.26-.54.3-.81.78-1.07,1.24-.26.04-.88.04-1.11-.7l-.56.18c.25.78.81,1.06,1.31,1.11-.54.73-1.47,1.15-2.38,1.08-.16-.01-.3.11-.32.27l-.15,1.57-1.32.44c-1.79-.34-2.35-1.5-2.46-1.76l.2-2.57,2.35-.96c.11-.05.18-.15.18-.27,0-.12-.07-.23-.18-.27-.29-.13-.68-.36-.87-.72-.16-.31-.13-.71.07-.91.06-.06.13-.11.22-.15.03-.01.05-.02.08-.03.04-.02.11-.04.19-.05h.18c.2.03.43.16.64.57l.3.97c.04.14.18.22.32.2l.84-.1c.12-.01.22-.1.25-.21l.4-1.43h2.67s0,.05,0,.08c.01.45.03.91.34,1.37.04.06.09.12.13.18.19.24.27.34.05.64ZM70.52,216.32h1.15l-.3,1.08-.4.05-.24-.75s0-.03-.02-.04c-.06-.12-.13-.23-.2-.33ZM66.9,212.59c.91-1.21,2.52-1.84,4.68-1.84h.19c1.98,0,3.55,1.45,3.66,3.33h-9.21c.07-.34.25-.91.68-1.49ZM65.38,215.24v-.07c0-.27.22-.49.49-.49h9.64c.27,0,.49.22.49.49v.07c0,.27-.22.49-.49.49h-5.94c-.08,0-.16,0-.24,0h-3.47c-.27,0-.49-.22-.49-.49ZM66.19,216.32h2.1c-.26.4-.28.96-.04,1.43.13.25.34.48.6.68l-1.74.71c-.29-.41-.99-1.53-.93-2.81ZM63.23,227.64c.48-2.04,1.73-3.82,3.44-4.9.23.43.78,1.17,1.89,1.62l-.86.28c-.07.02-.14.08-.17.15s-.04.15-.02.23l.46,1.4c.05.15.21.23.36.19l1.03-.28c.5-.14,1.02.02,1.36.41l1.29,3.91-.42.31-4.26.73,1.21-3.89-.57-.18-.94,3.04c-1.41.03-3.59-.42-4.37-.59l.57-2.42ZM60.73,247.16h1.02c.21,0,.4.08.54.24.14.15.21.35.19.56l-.06.65h-1.78l.09-1.45ZM60.61,249.2h1.76l-.35,3.89c-.03.38-.35.67-.73.67h-.96l.28-4.56ZM65.59,272.24c.05.56-.28,1-.4,1.02h-5.9v-2.21l.18-3.02h4.1l-.52,2.63c-.02.09,0,.18.06.25.06.07.14.11.23.11,0,0,0,0,0,0,1.38,0,2.17.44,2.24,1.23ZM77.97,270.78c.03.14.15.24.29.24,0,0,0,0,0,0,1.38,0,2.17.44,2.24,1.23.05.56-.28,1-.4,1.02h-5.9v-2.22s0-.06-.01-.09l-.94-2.92h4.15l.57,2.74ZM74.45,253.76h-.93c-.35,0-.64-.24-.72-.57l-.89-3.99h1.58l.94,4.56ZM73.38,248.61h-1.59l-.12-.56c-.05-.22,0-.44.14-.62.14-.17.35-.27.57-.27h.7l.3,1.45ZM72.96,246.57h-.58c-.4,0-.78.18-1.03.5-.25.32-.35.72-.26,1.12l1.14,5.14c.14.61.67,1.04,1.29,1.04h1.05l2.71,13.09h-4.22l-5.43-16.79,1.39-7.01-.58-.12-4.75,23.92h-4.18l.79-13.09h.99c.69,0,1.26-.52,1.32-1.21l.47-5.14c.03-.37-.09-.74-.34-1.01-.25-.27-.61-.43-.98-.43h-.98c.14-1.95.47-3.89.98-5.78h10.02l1.2,5.78ZM61.87,240.2l.43-2.82c.2.11.41.2.64.26.23.06.47.09.71.09.25,0,.5-.03.74-.1l7.9-2.27-.54,4.83h-9.88ZM72.48,234.69s-.02,0-.03,0l-8.24,2.36c-.37.11-.76.11-1.13,0-1.09-.3-1.74-1.39-1.48-2.5l.93-3.93c.76.17,2.83.6,4.32.61l-.17.54-3.31.57.1.58,8.29-1.43s.09-.03.13-.05l1.09-.8c.37-.27.85-.34,1.28-.17.58.22.93.81.85,1.42l-.17,1.37c-.07.59-.51,1.05-1.09,1.16l-1.37.25ZM75.84,236.5l-1.15.38-.62-1.88c.43-.1.79-.34,1.05-.67l.72,2.17ZM85.64,227.46s-.03.02-.05.04l-5.39,5.48c-.69.7-1.76.79-2.56.22l-1.94-1.39c.01-.43-.12-.84-.36-1.18.37-1.09,1.44-2.63,1.87-3.22l1.49,1.18c-.06.27-.15.81-.11,1.54l.59-.03c-.04-.74.06-1.24.11-1.44l4.36-3.02c.08-.05.12-.14.13-.23.05-1.02.59-2.33,2.9-2.8.14-.03.29,0,.4.1.11.09.18.23.18.37,0,.23-.17.43-.4.47-.66.12-1.42.49-1.6,1.08-.08.24-.09.61.3,1.01.45.45.89.21,1.16.07.29-.16.43-.22.66-.04.03.02.03.04.03.06-.01.35-.93,1.18-1.77,1.75Z"/>
            <path class="cls-9" d="M89.43,223.67c0-.16-.13-.3-.3-.3h-.29c-.16,0-.3.13-.3.3v1.95c0,.16.13.3.3.3h.29c.16,0,.3-.13.3-.3v-.76h1.24v-.59h-1.24v-.6Z"/>
          </g>
          <path class="cls-9" d="M248.7,273.62l.58-.12-16.5-81.09-.58.12,2.68,13.16h-22.57l-2.7-13.28-.58.12,16.5,81.09.58-.12-2.68-13.16h22.57l2.7,13.28ZM217.93,233.31h22.57l2.63,12.92h-22.57l-2.63-12.92ZM240.37,232.72h-22.57l-2.63-12.92h22.57l2.63,12.92ZM234.99,206.28l2.63,12.92h-22.57l-2.63-12.92h22.57ZM223.31,259.75l-2.63-12.92h22.57l2.63,12.92h-22.57Z"/>
          <g>
            <polygon class="cls-12" points="285.46 266.28 285.46 273.26 300.34 273.26 300.34 266.28 292.9 266.28 285.46 266.28"/>
            <polygon class="cls-12" points="300.94 266.28 300.94 273.26 315.82 273.26 315.82 266.28 308.38 266.28 300.94 266.28"/>
            <polygon class="cls-12" points="323.56 258.7 308.68 258.7 308.68 265.69 316.12 265.69 323.56 265.69 323.56 258.7"/>
            <polygon class="cls-12" points="308.08 258.7 293.2 258.7 293.2 265.69 300.64 265.69 308.08 265.69 308.08 258.7"/>
            <polygon class="cls-12" points="316.42 266.28 316.42 273.26 331.3 273.26 331.3 266.28 323.86 266.28 316.42 266.28"/>
            <path class="cls-9" d="M331.6,265.69h-7.44v-7.28c0-.16-.13-.3-.3-.3h-30.96c-.16,0-.3.13-.3.3v7.28h-7.44c-.16,0-.3.13-.3.3v7.58c0,.16.13.3.3.3h46.44c.16,0,.3-.13.3-.3v-7.58c0-.16-.13-.3-.3-.3ZM300.34,273.26h-14.89v-6.98h14.89v6.98ZM293.2,265.69v-6.98h14.89v6.98h-14.89ZM315.82,273.26h-14.89v-6.98h14.89v6.98ZM308.68,265.69v-6.98h14.89v6.98h-14.89ZM331.3,273.26h-14.89v-6.98h14.89v6.98Z"/>
          </g>
          <g>
            <path class="cls-12" d="M233.87,162.91c.15.49-.01,1.07-.43,1.51-.23.24-.52.46-.69.58l.04,2.22c1.63-.19,3.23-1.55,3.36-3.91l-2.32-.5s.03.08.04.11Z"/>
            <path class="cls-11" d="M232.15,156.73l-.19-.04c-1.93-.42-3.77.66-4.29,2.48l9.01,1.96c.02-.9-.32-3.48-4.53-4.39Z"/>
            <path class="cls-11" d="M227.26,160.77l9.42,2.05c.27.06.53-.11.59-.38l.02-.07c.03-.13,0-.26-.07-.37-.07-.11-.18-.19-.31-.22l-9.42-2.05s-.07-.01-.11-.01c-.09,0-.19.03-.27.08-.11.07-.19.18-.22.31l-.02.07c-.03.13,0,.26.07.37.07.11.18.19.31.22Z"/>
            <path class="cls-1" d="M232.8,167.81v.72c1.15-.2,2.01-.8,2.35-1.08l-.24-.47c-.61.47-1.32.75-2.11.83Z"/>
            <rect class="cls-1" x="198.48" y="152.53" width="15.69" height="7.76"/>
            <path class="cls-12" d="M231.2,162.81c.38.04.67-.19.84-.39l-1.72-.37c0,.13.03.28.11.42.13.2.39.31.76.35Z"/>
            <path class="cls-1" d="M214.17,163.37h-15.69v14.87h15.69v-14.87ZM206.86,175.39l-.36-.47,3.69-2.84.36.47-3.69,2.84ZM202.55,175.06l-.36-.47,8.78-6.75.36.47-8.78,6.75Z"/>
            <path class="cls-11" d="M195.99,180.73h16.65c.3-.24.66-.41,1.06-.47l.73-.1c-.11-.17-.2-.37-.21-.59,0-.25.1-.48.3-.66.14-.13.32-.19.53-.18.53.03,1.17.55,1.6.95v-29.64h-20.67v30.69ZM197.89,152.23c0-.16.13-.3.3-.3h16.28c.16,0,.3.13.3.3v8.35c0,.16-.13.3-.3.3h-16.28c-.16,0-.3-.13-.3-.3v-8.35ZM197.89,163.07c0-.16.13-.3.3-.3h16.28c.16,0,.3.13.3.3v15.46c0,.16-.13.3-.3.3h-16.28c-.16,0-.3-.13-.3-.3v-15.46Z"/>
            <path class="cls-12" d="M232.82,169.29c1.37,1.38,2.35,3.07,2.88,4.9.47.48,1.19.62,1.8.37.62-.26.97-.87.92-1.63-.05-.83-.38-1.01-.77-1.21-.44-.23-.98-.53-.86-1.7.16-1.52-.83-2.01-1.21-2.15-.35.29-1.37,1.05-2.78,1.27v.15Z"/>
            <path class="cls-14" d="M215.03,179.32c-.07,0-.09.02-.1.03-.1.09-.11.16-.11.21,0,.21.26.49.39.59.09.07.13.2.1.31-.03.11-.13.2-.24.22l-1.28.18c-.78.11-1.37.79-1.37,1.57,0,.88.71,1.59,1.59,1.59h2.56v-3.59c-.44-.47-1.16-1.09-1.54-1.11Z"/>
            <path class="cls-13" d="M218.01,203.05c.05.15-.03.31-.18.37l-2.22.8c-.3.11-.5.39-.5.71,0,.42.34.75.75.75h5.44v-2.2l-.21-2.49h-3.74l.65,2.06Z"/>
            <path class="cls-3" d="M228.64,182.56l4.76-5.99.46.37-4.76,5.99c-.72.91-1.74,1.48-2.87,1.63l.17,1.13c.63.49,4.69,3.41,9.74,1.89l-.59-10.72c-.14-2.64-1.21-5.12-3.04-7.02-.53.43-1.99,1.35-4.79,1.36l-1.64,1.64c-.89.89-1.3,2.16-1.12,3.4l.3,1.98,4.38-6.11.48.34-4.69,6.56.94,1.55-.51.31-.93-1.53-7.79,1.23v3.45h8.47c1.18,0,2.28-.53,3.01-1.45Z"/>
            <path class="cls-8" d="M239.32,214.22l-1.7-21.33c-.13-1.66-.58-3.25-1.32-4.74-1.07.32-2.11.45-3.08.45-3.78,0-6.59-1.99-7.18-2.44l-8.53,1.66c-1.03.2-1.93.83-2.47,1.74-.54.9-.66,2-.35,3l2.47,7.84h3.87l-.56-6.65-1.49-1.04.34-.49,1.53,1.07,8.98.07-1.02-4.08.57-.14,6.25,25.08h3.67Z"/>
            <path class="cls-13" d="M235.8,214.81l.46,1.86c.04.15-.04.3-.19.35l-2.22.8c-.3.11-.5.39-.5.71,0,.42.34.75.75.75h5.44v-2.21l-.18-2.27h-3.57Z"/>
            <path class="cls-14" d="M228.35,170.58c2.41-.13,3.57-1,3.88-1.28l-.07-4.46c0-.1.05-.2.14-.25,0,0,.43-.28.72-.58.27-.28.38-.65.3-.93-.09-.28-.36-.44-.63-.53-.22.33-.72.92-1.53.84-.56-.06-.97-.26-1.2-.62-.2-.3-.22-.63-.21-.87l-2.2-.48c-.18.41-.39.81-.78,1.08-.06.04-.13.08-.19.12-.27.16-.37.22-.28.58.03.12.1.24.2.36.4.47.48,1.02.56,1.56,0,0,0,0,0,0,.28.06.86.09,1.26-.44l.47.36c-.41.55-.98.71-1.45.71-.06,0-.12,0-.17,0,0,0,0,.01,0,.02.24.89.96,1.63,1.85,1.89.12.04.21.14.21.27l.08,1.56c0,.08-.03.16-.09.22l-.88.88ZM228.87,162.73c-.11.22-.38.31-.6.2-.22-.11-.31-.38-.2-.6.11-.22.38-.31.6-.2.22.11.31.38.2.6Z"/>
            <path class="cls-14" d="M219.45,161.05c.35-1.39.25-2.84-.29-4.17-.15-.38-.51-.62-.92-.62-.55,0-.99.44-.99.99v3.94h2.16l.04-.14Z"/>
            <path class="cls-3" d="M219.11,173.7l5.41.67c.21-.73.6-1.41,1.15-1.96l2.67-2.67-6.97-.5c-.23.28-.83,1-1.22,1.39l-.42-.42c.37-.37.96-1.08,1.18-1.35l-1.52-7.08h-2.15v9.81c0,1.07.8,1.98,1.86,2.11Z"/>
            <path class="cls-9" d="M228.66,162.13c-.22-.11-.49-.02-.6.2-.11.22-.02.49.2.6.22.11.49.02.6-.2.11-.22.02-.49-.2-.6Z"/>
            <path class="cls-9" d="M238.22,192.84c-.14-1.8-.64-3.52-1.47-5.12l-.6-10.89c-.03-.6-.11-1.19-.23-1.77.3.14.63.22.96.22.29,0,.58-.06.86-.17.86-.37,1.34-1.19,1.28-2.21-.07-1.16-.65-1.47-1.08-1.7-.39-.21-.63-.34-.55-1.11.19-1.76-.94-2.57-1.66-2.79l-.36-.7c.11-.11.21-.23.31-.36.6-.77.97-1.77,1.05-2.8.02,0,.03,0,.05,0,.5,0,.95-.35,1.06-.86l.02-.07c.06-.28,0-.57-.15-.82-.11-.17-.26-.31-.45-.39.04-.92-.2-4.09-4.99-5.13l-.19-.04c-2.3-.5-4.5.84-5.03,3.06-.09.03-.18.07-.27.12-.24.16-.41.4-.47.68l-.02.07c-.06.28,0,.57.15.82.12.19.3.33.5.42-.14.3-.29.57-.54.74-.05.03-.1.06-.15.09-.28.17-.75.44-.55,1.23.05.2.16.4.32.59.29.34.36.79.43,1.26.03.23.07.47.13.7.27,1.02,1.07,1.88,2.05,2.24l.05,1.03-7.21-.52-1.54-7.16.08-.3c.38-1.52.27-3.09-.31-4.54-.24-.6-.82-.99-1.47-.99-.38,0-.72.13-.99.35v-6.28c0-.16-.13-.3-.3-.3h-21.26c-.16,0-.3.13-.3.3v31.28c0,.16.13.3.3.3h16.43c-.19.33-.3.7-.3,1.1,0,1.2.98,2.18,2.18,2.18h11.61s.01,0,.02,0l.15,1.01-8.39,1.63c-1.2.23-2.24.97-2.87,2.02-.62,1.05-.77,2.32-.4,3.48l3.23,10.22-1.95.71c-.53.19-.89.7-.89,1.27,0,.74.6,1.35,1.35,1.35h5.74c.16,0,.3-.13.3-.3v-2.51s0-.02,0-.02l-.8-9.55,8.9.07,5.63,22.6-1.97.71c-.53.19-.89.7-.89,1.27,0,.74.6,1.35,1.35,1.35h5.74c.16,0,.3-.13.3-.3v-2.51s0-.02,0-.02l-1.93-24.21ZM216.57,184.01h-2.56c-.88,0-1.59-.71-1.59-1.59,0-.79.59-1.46,1.37-1.57l1.28-.18c.12-.02.21-.1.24-.22.03-.11,0-.24-.1-.31-.12-.1-.38-.37-.39-.59,0-.05,0-.12.11-.21.01,0,.03-.03.1-.03.37.02,1.09.63,1.54,1.11v3.59ZM216.66,157.25v22.43c-.43-.4-1.07-.92-1.6-.95-.2-.01-.39.05-.53.18-.2.18-.31.41-.3.66,0,.22.1.42.21.59l-.73.1c-.4.06-.77.22-1.06.47h-16.65v-30.69h20.67v7.21ZM235.59,167.86c.37.13,1.37.63,1.21,2.15-.12,1.17.42,1.46.86,1.7.38.21.72.38.77,1.21.04.76-.3,1.37-.92,1.63-.61.26-1.32.11-1.8-.37-.53-1.84-1.52-3.52-2.88-4.9v-.15c1.4-.22,2.42-.98,2.77-1.27ZM232.81,168.54v-.72c.78-.08,1.5-.36,2.1-.83l.24.47c-.34.28-1.2.88-2.34,1.08ZM232.79,167.22l-.04-2.22c.17-.12.46-.34.69-.58.42-.44.58-1.02.43-1.51-.01-.04-.03-.07-.04-.11l2.32.5c-.13,2.36-1.73,3.72-3.36,3.91ZM231.96,156.69l.19.04c4.21.91,4.55,3.49,4.53,4.39l-9.01-1.96c.51-1.82,2.35-2.9,4.29-2.48ZM226.95,160.55c-.07-.11-.1-.24-.07-.37l.02-.07c.03-.13.1-.24.22-.31.08-.05.17-.08.27-.08.04,0,.07,0,.11.01l9.42,2.05c.13.03.24.1.31.22.07.11.1.24.07.37l-.02.07c-.06.27-.32.43-.59.38l-9.42-2.05c-.13-.03-.24-.1-.31-.22ZM232.05,162.41c-.18.21-.46.43-.84.39-.37-.04-.63-.16-.76-.35-.09-.13-.11-.29-.11-.42l1.72.37ZM229.24,167.92c0-.13-.09-.24-.21-.27-.89-.26-1.61-1-1.85-1.89,0,0,0-.01,0-.02.06,0,.11,0,.17,0,.47,0,1.04-.16,1.45-.71l-.47-.36c-.4.54-.98.5-1.26.44,0,0,0,0,0,0-.08-.53-.16-1.09-.56-1.56-.1-.12-.17-.24-.2-.36-.09-.36,0-.42.28-.58.06-.04.12-.07.19-.12.39-.27.6-.67.78-1.08l2.2.48c-.02.24,0,.57.21.87.23.35.64.56,1.2.62.81.08,1.31-.5,1.53-.84.27.09.55.25.63.53.09.28-.03.65-.3.93-.28.3-.71.58-.72.58-.09.06-.14.15-.14.25l.07,4.46c-.31.27-1.47,1.14-3.88,1.28l.88-.88c.06-.06.09-.14.09-.22l-.08-1.56ZM217.25,157.25c0-.55.44-.99.99-.99.41,0,.77.24.92.62.54,1.33.64,2.78.29,4.17l-.04.14h-2.16v-3.94ZM217.25,161.78h2.15l1.52,7.08c-.22.27-.81.98-1.18,1.35l.42.42c.39-.39.99-1.1,1.22-1.39l6.97.5-2.67,2.67c-.55.55-.94,1.23-1.15,1.96l-5.41-.67c-1.06-.13-1.86-1.04-1.86-2.11v-9.81ZM217.25,173.28c.43.54,1.06.92,1.79,1.01l5.35.66c-.07.45-.07.91,0,1.36l.37,2.44-7.5,1.19v-6.66ZM225.62,184.01h-8.47v-3.45l7.79-1.23.93,1.53.51-.31-.94-1.55,4.69-6.56-.48-.34-4.38,6.11-.3-1.98c-.19-1.24.23-2.51,1.12-3.4l1.64-1.64c2.79,0,4.26-.93,4.79-1.36,1.82,1.9,2.9,4.38,3.04,7.02l.59,10.72c-5.05,1.51-9.12-1.41-9.74-1.89l-.17-1.13c1.13-.15,2.15-.73,2.87-1.63l4.76-5.99-.46-.37-4.76,5.99c-.73.92-1.83,1.45-3.01,1.45ZM221.1,200.99l.21,2.49v2.2h-5.44c-.42,0-.75-.34-.75-.75,0-.32.2-.6.5-.71l2.22-.8c.15-.05.23-.22.18-.37l-.65-2.06h3.74ZM229.4,189.14l-.57.14,1.02,4.08-8.98-.07-1.53-1.07-.34.49,1.49,1.04.56,6.65h-3.87l-2.47-7.84c-.32-1-.19-2.1.35-3,.54-.9,1.44-1.54,2.47-1.74l8.53-1.66c.59.45,3.39,2.44,7.18,2.44.97,0,2-.13,3.08-.45.74,1.49,1.19,3.08,1.32,4.74l1.7,21.33h-3.67l-6.25-25.08ZM239.55,219.29h-5.44c-.42,0-.75-.34-.75-.75,0-.32.2-.6.5-.71l2.22-.8c.14-.05.22-.2.19-.35l-.46-1.86h3.57l.18,2.27v2.21Z"/>
            <path class="cls-9" d="M198.18,178.83h16.28c.16,0,.3-.13.3-.3v-15.46c0-.16-.13-.3-.3-.3h-16.28c-.16,0-.3.13-.3.3v15.46c0,.16.13.3.3.3ZM198.48,163.37h15.69v14.87h-15.69v-14.87Z"/>
            <path class="cls-9" d="M198.18,160.88h16.28c.16,0,.3-.13.3-.3v-8.35c0-.16-.13-.3-.3-.3h-16.28c-.16,0-.3.13-.3.3v8.35c0,.16.13.3.3.3ZM198.48,152.53h15.69v7.76h-15.69v-7.76Z"/>
            <rect class="cls-9" x="201.22" y="171.15" width="11.08" height=".59" transform="translate(-61.66 161.64) rotate(-37.57)"/>
            <rect class="cls-9" x="206.19" y="173.44" width="4.66" height=".59" transform="translate(-62.69 163.18) rotate(-37.57)"/>
          </g>
          <g>
            <rect class="cls-6" x="191.63" y="266.73" width="40.87" height="4.66"/>
            <rect class="cls-5" x="190.21" y="264.86" width="43.72" height="1.28"/>
            <rect class="cls-5" x="190.21" y="271.98" width="43.72" height="1.28"/>
            <path class="cls-9" d="M234.22,264.27h-44.31c-.16,0-.3.13-.3.3v1.87c0,.16.13.3.3.3h1.13v4.66h-1.13c-.16,0-.3.13-.3.3v1.87c0,.16.13.3.3.3h44.31c.16,0,.3-.13.3-.3v-1.87c0-.16-.13-.3-.3-.3h-1.13v-4.66h1.13c.16,0,.3-.13.3-.3v-1.87c0-.16-.13-.3-.3-.3ZM233.92,271.98v1.28h-43.72v-1.28h43.72ZM191.63,271.39v-4.66h40.87v4.66h-40.87ZM233.92,266.14h-43.72v-1.28h43.72v1.28Z"/>
          </g>
          <g>
            <rect class="cls-6" x="187.75" y="257.74" width="40.87" height="4.66"/>
            <rect class="cls-5" x="186.33" y="262.98" width="43.72" height="1.28"/>
            <rect class="cls-5" x="186.33" y="255.86" width="43.72" height="1.28"/>
            <path class="cls-9" d="M230.34,255.27h-44.31c-.16,0-.3.13-.3.3v1.87c0,.16.13.3.3.3h1.13v4.66h-1.13c-.16,0-.3.13-.3.3v1.87c0,.16.13.3.3.3h44.31c.16,0,.3-.13.3-.3v-1.87c0-.16-.13-.3-.3-.3h-1.13v-4.66h1.13c.16,0,.3-.13.3-.3v-1.87c0-.16-.13-.3-.3-.3ZM230.04,262.98v1.28h-43.72v-1.28h43.72ZM187.75,262.39v-4.66h40.87v4.66h-40.87ZM230.04,257.14h-43.72v-1.28h43.72v1.28Z"/>
          </g>
          <g>
            <path class="cls-14" d="M176,220.78c.52-.51.9-1.18,1.13-2,.03-.1.11-.18.21-.21.26-.06.47-.17.63-.31.28-.25.39-.64.27-.92-.03-.08-.09-.15-.16-.23-.13-.14-.3-.24-.5-.31-.07-.02-.13-.07-.16-.13-.2-.33-.49-.81-.63-1.04h-6.42l-.58,1.03c-.05.09-.14.15-.24.15h-.06c-.18.07-.34.17-.46.3-.07.08-.13.15-.16.23-.13.28-.01.68.27.92.16.14.37.25.63.31.1.03.18.1.21.21.23.82.61,1.49,1.13,2,.62.6,1.51.96,2.45.99.94-.03,1.84-.39,2.45-.99ZM175.2,216.81c.25,0,.45.2.45.45s-.2.45-.45.45-.45-.2-.45-.45.2-.45.45-.45ZM172.97,217.73l.73-.73.42.42-.52.52.52.52-.42.42-.73-.73c-.12-.12-.12-.3,0-.42ZM171.43,217.26c0-.25.2-.45.45-.45s.45.2.45.45-.2.45-.45.45-.45-.2-.45-.45ZM172.09,219.46c0-.16.13-.3.3-.3h2.31c.16,0,.3.13.3.3,0,.8-.65,1.45-1.45,1.45s-1.45-.65-1.45-1.45Z"/>
            <path class="cls-13" d="M168.97,215.63c-.02.18-.03.45,0,.78.11-.07.23-.12.36-.16,0,0,0,0,.01,0l.34-.61h-.61s-.07,0-.1,0Z"/>
            <path class="cls-12" d="M174.35,219.75h-1.61c.12.33.44.56.8.56s.68-.23.8-.56Z"/>
            <path class="cls-14" d="M173.53,222.36c-.65-.02-1.28-.17-1.83-.44v1.7c1.07.86,2.61.86,3.68,0v-1.7c-.56.27-1.18.43-1.83.44,0,0,0,0,0,0s0,0,0,0Z"/>
            <rect class="cls-8" x="170.61" y="230.67" width="5.86" height="2.18"/>
            <path class="cls-3" d="M176.77,227.56l.56-3.08-1.58-.41c-.64.51-1.43.77-2.21.77s-1.57-.26-2.21-.77l-1.58.41.56,3.08h6.46Z"/>
            <path class="cls-13" d="M177.47,215.63s.06.1.09.14c.12.2.24.39.31.51.09.03.17.08.25.12.03-.33.02-.6,0-.78-.03,0-.07,0-.1,0h-.54Z"/>
            <path class="cls-3" d="M167.89,228.33l-.43-3.26-.17.04c-.95.24-1.67.99-1.88,1.95l-1.15,5.79h3.04l.59-4.52Z"/>
            <path class="cls-3" d="M182.71,232.85l-1.03-5.79c-.21-.96-.93-1.7-1.88-1.94l-.17-.04-.43,3.26.6,4.52h2.91Z"/>
            <path class="cls-11" d="M174.15,210.45c-.07,0-.14,0-.21,0h-.8c-.07,0-.14,0-.21,0v2.94h1.21v-2.94Z"/>
            <path class="cls-11" d="M174.74,210.53v2.86h3.07c-.4-1.47-1.6-2.57-3.07-2.86Z"/>
            <path class="cls-11" d="M172.34,210.53c-1.47.3-2.67,1.4-3.07,2.86h3.07v-2.86Z"/>
            <path class="cls-11" d="M176.92,215.04s.05,0,.07,0h1.02c.29,0,.53-.24.53-.53s-.24-.53-.53-.53h-8.94c-.29,0-.53.24-.53.53s.24.53.53.53h7.85Z"/>
            <path class="cls-8" d="M167.9,232.85h2.12v-2.48c0-.16.13-.3.3-.3h6.45c.16,0,.3.13.3.3v2.48h2.14l-.6-4.48s0-.05,0-.08l.44-3.37-1.14-.29-.59,3.28c-.03.14-.15.24-.29.24h-6.95c-.14,0-.27-.1-.29-.24l-.59-3.28-1.14.29.44,3.37s0,.05,0,.08l-.58,4.48Z"/>
            <path class="cls-8" d="M179.29,245.57c-.93,0-1.72-.66-1.88-1.57l-.27-1.55h-3.3v3.96l2.83,21.63h4.02l-1.1-22.46h-.31Z"/>
            <path class="cls-8" d="M179.29,244.98h.28l-.12-2.54h-1.71l.26,1.45c.11.63.66,1.08,1.29,1.08Z"/>
            <path class="cls-14" d="M163.45,241.61h-1.74c-.6,0-1.08.49-1.08,1.08v.11c0,.48.32.91.79,1.04l.17.05c.79.22,1.63.14,2.37-.24.36-.19.59-.56.59-.96,0-.6-.49-1.08-1.08-1.08Z"/>
            <path class="cls-14" d="M185.38,241.61h-1.74c-.6,0-1.08.49-1.08,1.08,0,.41.22.78.59.96.73.38,1.57.46,2.37.24l.17-.05c.46-.13.79-.56.79-1.04v-.11c0-.6-.49-1.08-1.08-1.08Z"/>
            <rect class="cls-6" x="153.11" y="235.32" width="40.87" height="4.66"/>
            <rect class="cls-5" x="151.68" y="233.44" width="43.72" height="1.28"/>
            <path class="cls-5" d="M151.68,241.85h8.58c.29-.5.83-.83,1.44-.83h1.74c.62,0,1.15.33,1.44.83h17.3c.29-.5.83-.83,1.44-.83h1.74c.62,0,1.15.33,1.44.83h8.58v-1.28h-43.72v1.28Z"/>
            <path class="cls-8" d="M171.86,243.38v-.93h-1.98l-.27,1.55c-.16.91-.95,1.57-1.88,1.57h-.43l-.92,22.46h4.04l2.83-21.63v-1.37c-.79-.14-1.38-.83-1.38-1.65Z"/>
            <path class="cls-8" d="M169.02,243.89l.26-1.45h-1.85l-.1,2.54h.4c.64,0,1.18-.46,1.29-1.08Z"/>
            <path class="cls-1" d="M166.26,270.73c0,.16-.14.28-.3.28,0,0,0,0,0,0-1.38,0-2.17.44-2.24,1.23-.05.56.28,1,.4,1.02h5.9v-2.22s0-.03,0-.04l.31-2.38h-3.98l-.09,2.11Z"/>
            <path class="cls-8" d="M172.45,243.38c0,.5.34.92.79,1.05v-1.98h-.79v.93Z"/>
            <path class="cls-1" d="M177.06,271.01s0,.03,0,.04v2.22h5.9c.12-.02.44-.46.4-1.02-.07-.79-.87-1.23-2.24-1.23,0,0,0,0,0,0-.16,0-.29-.12-.3-.28l-.1-2.11h-3.97l.31,2.38Z"/>
            <path class="cls-9" d="M195.7,232.85h-12.39l-1.05-5.9s0,0,0-.01c-.26-1.18-1.15-2.09-2.32-2.39l-3.96-1.02v-1.96c.15-.11.3-.23.44-.36.56-.55.98-1.25,1.24-2.1.28-.09.52-.22.71-.39.47-.42.65-1.1.41-1.61-.03-.07-.07-.14-.12-.21.11-.7.07-1.23.03-1.48.27-.2.45-.53.45-.89,0-.47-.29-.87-.69-1.03-.46-2.11-2.32-3.62-4.5-3.62h-.8c-2.18,0-4.04,1.51-4.5,3.62-.4.17-.69.57-.69,1.03,0,.37.18.69.45.89-.04.25-.08.78.03,1.48-.05.07-.09.14-.12.21-.23.52-.06,1.19.41,1.61.19.17.43.3.71.39.26.85.68,1.56,1.24,2.1.13.13.28.25.44.36v1.96l-3.96,1.02c-1.17.3-2.05,1.22-2.32,2.4l-1.17,5.91h-12.27c-.16,0-.3.13-.3.3v1.87c0,.16.13.3.3.3h1.13v4.66h-1.13c-.16,0-.3.13-.3.3v1.87c0,.16.13.3.3.3h8.66c-.01.08-.02.17-.02.25v.11c0,.75.5,1.41,1.22,1.61l.17.05c.34.1.69.15,1.04.15.61,0,1.21-.14,1.76-.43.56-.29.91-.86.91-1.49,0-.09,0-.17-.02-.25h1.73l-1.15,27.99c-1.45.06-2.07.61-2.34,1.07-.38.65-.22,1.39.03,1.82.2.34.47.54.74.54h6.2c.16,0,.3-.13.3-.3v-2.49l2.93-22.37,2.93,22.37v2.49c0,.16.13.3.3.3h6.2c.27,0,.54-.2.74-.54.25-.43.41-1.17.03-1.82-.27-.46-.89-1.01-2.34-1.07l-1.36-27.99h1.95c-.01.08-.02.17-.02.25,0,.63.35,1.2.91,1.49.55.28,1.15.43,1.76.43.35,0,.7-.05,1.04-.15l.17-.05c.72-.2,1.22-.87,1.22-1.61v-.11c0-.09,0-.17-.02-.25h8.66c.16,0,.3-.13.3-.3v-1.87c0-.16-.13-.3-.3-.3h-1.13v-4.66h1.13c.16,0,.3-.13.3-.3v-1.87c0-.16-.13-.3-.3-.3ZM179.62,225.07l.17.04c.95.24,1.67.99,1.88,1.94l1.03,5.79h-2.91l-.6-4.52.43-3.26ZM174.74,210.53c1.47.3,2.67,1.4,3.07,2.86h-3.07v-2.86ZM172.93,210.45c.07,0,.14,0,.21,0h.8c.07,0,.14,0,.21,0v2.94h-1.21v-2.94ZM172.34,210.53v2.86h-3.07c.4-1.47,1.6-2.57,3.07-2.86ZM168.55,214.51c0-.29.24-.53.53-.53h8.94c.29,0,.53.24.53.53s-.24.53-.53.53h-1.02s-.05,0-.07,0h-7.85c-.29,0-.53-.24-.53-.53ZM178.12,216.41c-.08-.05-.16-.09-.25-.12-.07-.11-.19-.31-.31-.51-.03-.05-.06-.1-.09-.14h.54s.07,0,.1,0c.02.18.03.44,0,.78ZM169.68,215.63l-.34.61s0,0-.01,0c-.13.04-.25.1-.36.16-.03-.33-.01-.6,0-.78.03,0,.07,0,.1,0h.61ZM171.09,220.78c-.52-.51-.9-1.18-1.13-2-.03-.1-.11-.18-.21-.21-.26-.06-.47-.17-.63-.31-.28-.25-.39-.64-.27-.92.03-.08.09-.16.16-.23.12-.13.28-.23.46-.29h.06c.1,0,.19-.06.24-.15l.58-1.03h6.42c.14.23.44.72.63,1.04.04.06.09.11.16.13.19.06.37.17.5.31.07.08.13.15.16.23.13.28.01.68-.27.92-.16.14-.37.25-.63.31-.1.03-.18.1-.21.21-.23.82-.61,1.49-1.13,2-.62.6-1.51.96-2.45.99-.94-.03-1.84-.39-2.45-.99ZM175.38,221.92v1.7c-1.07.86-2.61.86-3.68,0v-1.7c.56.27,1.18.43,1.83.44,0,0,0,0,0,0s0,0,0,0c.65-.02,1.27-.17,1.83-.44ZM171.33,224.08c.64.51,1.43.77,2.21.77s1.57-.26,2.21-.77l1.58.41-.56,3.08h-6.46l-.56-3.08,1.58-.41ZM168.04,224.92l1.14-.29.59,3.28c.03.14.15.24.29.24h6.95c.14,0,.27-.1.29-.24l.59-3.28,1.14.29-.44,3.37s0,.05,0,.08l.6,4.48h-2.14v-2.48c0-.16-.13-.3-.3-.3h-6.45c-.16,0-.3.13-.3.3v2.48h-2.12l.58-4.48s0-.05,0-.08l-.44-3.37ZM176.47,230.67v2.18h-5.86v-2.18h5.86ZM165.41,227.07c.21-.96.93-1.7,1.88-1.95l.17-.04.43,3.26-.59,4.52h-3.04l1.15-5.79ZM163.95,243.66c-.73.38-1.57.46-2.37.24l-.17-.05c-.46-.13-.79-.56-.79-1.04v-.11c0-.6.49-1.08,1.08-1.08h1.74c.6,0,1.08.49,1.08,1.08,0,.41-.22.78-.59.96ZM170.02,271.01s0,.03,0,.04v2.22h-5.9c-.12-.02-.45-.46-.4-1.02.07-.79.87-1.23,2.24-1.23,0,0,0,0,0,0,.16,0,.29-.13.3-.28l.09-2.11h3.98l-.31,2.38ZM173.25,246.4l-2.83,21.63h-4.04l.92-22.46h.43c.93,0,1.72-.66,1.88-1.57l.27-1.55h1.98v.93c0,.83.6,1.51,1.38,1.65v1.37ZM167.32,244.98l.1-2.54h1.85l-.26,1.45c-.11.63-.66,1.08-1.29,1.08h-.4ZM173.25,244.42c-.46-.13-.79-.55-.79-1.05v-.93h.79v1.98ZM180.82,270.73c0,.16.14.28.3.28,0,0,0,0,0,0,1.38,0,2.17.44,2.24,1.23.05.56-.28,1-.4,1.02h-5.9v-2.22s0-.03,0-.04l-.31-2.38h3.97l.1,2.11ZM180.69,268.03h-4.02l-2.83-21.63v-3.96h3.3l.27,1.55c.16.91.95,1.57,1.88,1.57h.31l1.1,22.46ZM177.74,242.44h1.71l.12,2.54h-.28c-.64,0-1.18-.46-1.29-1.08l-.26-1.45ZM186.46,242.81c0,.48-.32.91-.79,1.04l-.17.05c-.79.22-1.63.14-2.37-.24-.36-.19-.59-.56-.59-.96,0-.6.49-1.08,1.08-1.08h1.74c.6,0,1.08.49,1.08,1.08v.11ZM195.4,240.57v1.28h-8.58c-.29-.5-.83-.83-1.44-.83h-1.74c-.62,0-1.15.33-1.44.83h-17.3c-.29-.5-.83-.83-1.44-.83h-1.74c-.62,0-1.15.33-1.44.83h-8.58v-1.28h43.72ZM153.11,239.98v-4.66h40.87v4.66h-40.87ZM195.4,234.73h-43.72v-1.28h43.72v1.28Z"/>
            <path class="cls-9" d="M173.7,218.87l.42-.42-.52-.52.52-.52-.42-.42-.73.73c-.12.12-.12.3,0,.42l.73.73Z"/>
            <path class="cls-9" d="M172.33,217.26c0-.25-.2-.45-.45-.45s-.45.2-.45.45.2.45.45.45.45-.2.45-.45Z"/>
            <path class="cls-9" d="M175.2,217.71c.25,0,.45-.2.45-.45s-.2-.45-.45-.45-.45.2-.45.45.2.45.45.45Z"/>
            <path class="cls-9" d="M174.99,219.46c0-.16-.13-.3-.3-.3h-2.31c-.16,0-.3.13-.3.3,0,.8.65,1.45,1.45,1.45s1.45-.65,1.45-1.45ZM172.74,219.75h1.61c-.12.33-.44.56-.8.56s-.68-.23-.8-.56Z"/>
          </g>
          <g>
            <path class="cls-14" d="M306.39,206.43l.17,1.89c1.71-1.56,3.47-1.52,4.25-1.4l-.11-1.4-1.97-1.69c-.09-.08-.13-.2-.09-.32s.14-.19.26-.2c.32-.03.76-.12,1.06-.41.26-.25.35-.63.22-.89-.04-.07-.09-.14-.17-.21-.02-.02-.04-.04-.07-.06-.04-.03-.09-.07-.17-.11l-.17-.06c-.2-.03-.46.02-.78.35l-.59.82c-.08.12-.24.16-.37.09l-.76-.36c-.11-.05-.18-.16-.17-.28l.07-1.48-2.53-.84s-.02.05-.03.07c-.15.42-.31.86-.76,1.2-.06.05-.12.09-.18.13-.26.17-.36.23-.25.59.03.11.11.23.21.35.42.45.52.99.63,1.52.24.12.82.31,1.28-.31l.48.35c-.38.51-.84.68-1.25.68-.12,0-.23-.01-.34-.04.29.86,1.03,1.56,1.92,1.77.12.03.21.13.23.26ZM305.79,201.26c-.1.23-.37.33-.59.23-.23-.1-.33-.37-.23-.59s.37-.33.59-.23.33.37.23.59Z"/>
            <path class="cls-8" d="M307.88,202.19l.46-.64s.02-.02.03-.03c.1-.1.19-.18.29-.25l-1.09-.36-.05,1.12.36.17Z"/>
            <path class="cls-14" d="M294.57,216.75c-.07.06-.11.12-.11.21-.02.31.3.74.42.86.08.09.1.22.05.33-.05.11-.16.18-.28.17-.04,0-.99-.05-2.05-.4-.17-.06-.35-.03-.5.08-.14.11-.22.27-.21.45.06,1.07.69,2.04,1.63,2.54.96.51,1.9.8,2.79.85l.44-3.41c-1.05-1.16-2.03-1.81-2.19-1.68Z"/>
            <path class="cls-11" d="M292.79,217.36c.47.16.92.25,1.26.3-.11-.22-.2-.48-.18-.74,0,0,0-.02,0-.03l-15.21-15.21-1.07,1.07,14.58,14.58c.2-.05.41-.04.62.03Z"/>
            <path class="cls-13" d="M308.84,209.57c.79-.29,1.63-.24,2.38.14,1.41.71,2.03,2.41,1.41,3.86l-2.97,6.97,6.14-1.73-1.18-5.98c-.43-2.17-1.74-4.08-3.61-5.26-.31-.08-2.45-.56-4.43,1.57l-.02.05c-.72,1.85-1.08,3.84-1.07,5.83l1.62-3.81c.33-.77.94-1.36,1.73-1.64Z"/>
            <path class="cls-8" d="M310.36,203.33c-.21.2-.47.35-.79.45l1.43,1.22c.41-.3,1.42-1.15,1.76-2.38l-1.99-.66c.12.46-.04,1-.42,1.37Z"/>
            <path class="cls-11" d="M304.11,199.13h0l5.63,1.87c.07.02.15.04.22.07l3.29,1.09c.26.09.54-.05.62-.31l.02-.07c.04-.13.03-.26-.03-.38-.06-.12-.16-.21-.29-.25l-9.15-3.03c-.26-.09-.54.05-.62.31l-.02.07c-.09.26.05.54.31.62Z"/>
            <path class="cls-12" d="M271.83,192.76c-1.8,0-3.27,1.47-3.27,3.27s1.47,3.27,3.27,3.27c.82,0,1.57-.31,2.15-.81l-2.31-2.31.42-.42,2.3,2.3c.44-.56.71-1.26.71-2.03,0-1.8-1.47-3.27-3.27-3.27Z"/>
            <path class="cls-11" d="M309.4,195.64l-.19-.06c-1.88-.62-3.82.26-4.52,2.01l8.75,2.9c.11-.9.05-3.49-4.04-4.85Z"/>
            <path class="cls-1" d="M320.77,253.58l-.77-2.46-3.82,1.68,1.05,2.08c.04.07.04.16.02.23-.03.08-.08.14-.16.17-1.25.58-1.79,1.31-1.52,2.06.19.53.67.79.79.76l5.35-2.48-.93-2.01s-.01-.02-.01-.04Z"/>
            <path class="cls-8" d="M317,224.74l-8.49,2.25c-.44,2.05-3.92,18.25-5.55,25.37h4.49l9.07-20.67c.96-2.19,1.13-4.65.49-6.95Z"/>
            <path class="cls-8" d="M316.93,241.29s-.01-.05-.01-.08l-.36-8.13-4.79,10.93,4.16,8.25,3.91-1.72-2.89-9.26Z"/>
            <path class="cls-1" d="M302.15,255.68c-.05.11-.15.18-.27.18h0c-1.38,0-2.17.44-2.24,1.23-.05.56.28,1,.4,1.02h5.9v-2.22s0-.08.02-.12l1.24-2.82h-4.37c-.35,1.54-.6,2.55-.67,2.72Z"/>
            <path class="cls-3" d="M308.75,221.19l3.34-7.86c.5-1.17,0-2.53-1.13-3.1-.6-.3-1.28-.34-1.91-.11-.63.23-1.13.7-1.39,1.32l-2.86,6.72c.17.26.57.86.92,1.29l-.46.37c-.37-.46-.78-1.07-.95-1.33l-6.97.14-.43,3.28,8.08,1.34c1.59.26,3.13-.58,3.77-2.06Z"/>
            <polygon class="cls-11" points="297.44 222.6 302.17 227.33 303.24 226.26 300 223.02 297.44 222.6"/>
            <path class="cls-4" d="M315.92,219.4l-6.55,1.84-.08.19c-.38.88-1.04,1.57-1.83,1.99l.07.22,8.74-2.46-.35-1.79Z"/>
            <polygon class="cls-13" points="316.87 224.17 316.39 221.76 307.72 224.2 308.45 226.39 316.87 224.17"/>
            <path class="cls-9" d="M305.56,200.67c-.23-.1-.49,0-.59.23s0,.49.23.59c.23.1.49,0,.59-.23.1-.23,0-.49-.23-.59Z"/>
            <path class="cls-9" d="M321.33,253.39l-3.82-12.23-.42-9.29c1.03-2.39,1.17-5.06.41-7.55l-2.3-11.6c-.45-2.29-1.83-4.32-3.78-5.59l-.13-1.6c.43-.3,1.64-1.27,2.05-2.75.02,0,.05,0,.07,0,.46,0,.88-.29,1.03-.74l.02-.07c.09-.28.07-.57-.06-.83-.09-.18-.23-.33-.4-.44.13-.91.23-4.09-4.42-5.63l-.19-.06c-2.24-.74-4.56.36-5.32,2.52-.37.07-.7.34-.82.72l-.02.07c-.18.56.11,1.16.66,1.36,0,.02-.01.04-.02.06-.14.39-.25.69-.56.93-.05.04-.1.07-.15.1-.27.18-.73.48-.5,1.25.06.2.18.4.35.58.31.33.39.77.48,1.24.04.23.09.46.16.69.32,1.01,1.15,1.83,2.15,2.15l.21,2.25-.02.04c-.9,2.31-1.26,4.83-1.06,7.3l-.69,1.62-7.06.14c-.72-.8-2.27-2.35-3-1.75-.02.01-.03.03-.05.04l-15.28-15.28c-.11-.11-.31-.11-.42,0l-.53.53-3.1-3.1c.55-.67.88-1.52.88-2.45,0-2.13-1.73-3.86-3.86-3.86s-3.86,1.73-3.86,3.86,1.73,3.86,3.86,3.86c.99,0,1.89-.37,2.57-.98l3.09,3.09-.53.53c-.12.12-.12.3,0,.42l14.67,14.67c-.23.23-.35.54-.33.86.08,1.27.82,2.43,1.94,3.03,1.1.59,2.18.9,3.2.93l5.51,5.51c.06.06.13.09.21.09s.15-.03.21-.09l1.49-1.49c.06-.06.09-.13.09-.21s-.03-.15-.09-.21l-2.86-2.86,3.88.64c.23.04.45.06.67.06.47,0,.93-.08,1.36-.24l1.04,3.12c-1.61,7.49-5.69,26.35-6.29,28.5-1.5.05-2.13.6-2.4,1.07-.38.65-.22,1.39.03,1.82.2.34.47.54.74.54h6.2c.16,0,.3-.13.3-.3v-2.45l4.92-11.23,5.12,10.16c-1.27.66-1.6,1.41-1.65,1.94-.07.75.38,1.35.79,1.64.22.15.44.23.64.23.09,0,.18-.02.26-.05l5.63-2.61c.15-.07.21-.24.14-.39l-1.05-2.26ZM274.39,198.06l-2.3-2.3-.42.42,2.31,2.31c-.58.5-1.33.81-2.15.81-1.8,0-3.27-1.47-3.27-3.27s1.47-3.27,3.27-3.27,3.27,1.47,3.27,3.27c0,.77-.27,1.47-.71,2.03ZM311.01,205l-1.43-1.22c.31-.1.58-.25.79-.45.38-.37.54-.91.42-1.37l1.99.66c-.34,1.23-1.35,2.08-1.76,2.38ZM309.22,195.58l.19.06c4.09,1.35,4.15,3.95,4.04,4.85l-8.75-2.9c.7-1.75,2.65-2.63,4.52-2.01ZM303.8,198.51l.02-.07c.09-.26.37-.4.62-.31l9.15,3.03c.13.04.23.13.29.25.06.12.07.25.03.38l-.02.07c-.09.26-.36.4-.62.31l-3.29-1.09c-.07-.03-.15-.06-.22-.07l-5.63-1.87h0c-.26-.09-.4-.37-.31-.62ZM308.66,201.26c-.1.07-.2.16-.29.25-.01.01-.02.02-.03.03l-.46.64-.36-.17.05-1.12,1.09.36ZM304.24,204.4c.11.02.22.04.34.04.41,0,.87-.17,1.25-.68l-.48-.35c-.46.62-1.04.43-1.28.31-.1-.53-.21-1.07-.63-1.52-.11-.12-.18-.23-.21-.35-.11-.35,0-.42.25-.59.06-.04.12-.08.18-.13.44-.34.6-.78.76-1.2,0-.02.02-.05.03-.07l2.53.84-.07,1.48c0,.12.06.23.17.28l.76.36c.13.06.28.02.37-.09l.59-.82c.32-.32.59-.38.78-.35l.17.06c.08.04.13.08.17.11.02.02.04.04.07.06.07.07.13.14.17.21.13.26.04.64-.22.89-.3.29-.74.38-1.06.41-.12.01-.22.09-.26.2s0,.24.09.32l1.97,1.69.11,1.4c-.78-.12-2.54-.16-4.25,1.4l-.17-1.89c-.01-.13-.1-.23-.23-.26-.88-.21-1.63-.91-1.92-1.77ZM306.56,209.19l.02-.05c1.98-2.14,4.12-1.66,4.43-1.57,1.87,1.18,3.18,3.1,3.61,5.26l1.18,5.98-6.14,1.73,2.97-6.97c.62-1.45,0-3.15-1.41-3.86-.75-.38-1.6-.43-2.38-.14-.79.29-1.4.87-1.73,1.64l-1.62,3.81c0-1.99.35-3.98,1.07-5.83ZM277.59,202.75l1.07-1.07,15.21,15.21s0,.02,0,.03c-.02.26.07.52.18.74-.34-.05-.79-.14-1.26-.3-.2-.07-.41-.07-.62-.03l-14.58-14.58ZM296.32,221.85c-.89-.05-1.83-.34-2.79-.85-.94-.5-1.57-1.48-1.63-2.54-.01-.18.06-.34.21-.45.14-.11.32-.14.5-.08,1.06.36,2.01.4,2.05.4.12,0,.23-.06.28-.17.05-.11.03-.24-.05-.33-.12-.13-.44-.56-.42-.86,0-.09.04-.15.11-.21.16-.13,1.14.52,2.19,1.68l-.44,3.41ZM303.24,226.26l-1.07,1.07-4.73-4.73,2.57.43,3.24,3.24ZM304.98,223.25l-8.08-1.34.43-3.28,6.97-.14c.18.27.58.87.95,1.33l.46-.37c-.35-.44-.75-1.03-.92-1.29l2.86-6.72c.26-.62.76-1.09,1.39-1.32.63-.23,1.31-.19,1.91.11,1.13.57,1.63,1.93,1.13,3.1l-3.34,7.86c-.63,1.48-2.18,2.32-3.77,2.06ZM307.46,223.41c.8-.42,1.46-1.11,1.83-1.99l.08-.19,6.55-1.84.35,1.79-8.74,2.46-.07-.22ZM307.72,224.2l8.67-2.44.48,2.4-8.41,2.23-.73-2.19ZM305.95,255.77s-.02.08-.02.12v2.22h-5.9c-.12-.02-.45-.46-.4-1.02.07-.79.87-1.23,2.24-1.23h0c.12,0,.23-.07.27-.18.07-.18.32-1.18.67-2.72h4.37l-1.24,2.82ZM307.45,252.36h-4.49c1.63-7.12,5.11-23.32,5.55-25.37l8.49-2.25c.64,2.3.47,4.75-.49,6.95l-9.07,20.67ZM311.75,244.02l4.79-10.93.36,8.13s0,.05.01.08l2.89,9.26-3.91,1.72-4.16-8.25ZM316.36,258.11c-.12.03-.6-.23-.79-.76-.27-.75.27-1.48,1.52-2.06.07-.03.13-.1.16-.17.03-.08.02-.16-.02-.23l-1.05-2.08,3.82-1.68.77,2.46s0,.02.01.04l.93,2.01-5.35,2.48Z"/>
          </g>
          <g>
            <path class="cls-3" d="M118.57,91.85l6.74.74.72-2.7-6.14-1.95.18-.56,1.51.48,3-3.11.43.41-2.79,2.9,4.16,1.32.57-.27s.09-.04.13-.05l.79-2.95-.34-.09c-1.03-.28-1.64-1.34-1.37-2.37.01-.05.03-.09.04-.13-.85-.5-1.03-1.35-.98-1.95-2.18.05-4.2,1.03-5.59,2.74l-2.76,3.4c-.6.74-.74,1.71-.38,2.59.36.88,1.14,1.47,2.09,1.57Z"/>
            <path class="cls-13" d="M122.98,81.32c.76-.24,1.57-.37,2.39-.37h0l1.95-3.75c-.1-.18-.26-.51-.36-.82-.18-.58-.07-1.18.29-1.55.03-.03.06-.05.09-.08l-2.5-.63c-.31.46-1.16,1.87-.8,3.16.13.49.07.92-.19,1.29-.45.65-1.41.9-1.9.99.09.59.38,1.55,1.03,1.76Z"/>
            <path class="cls-11" d="M131.73,70.12l-.19-.05c-2.09-.53-3.82-.31-4.99.64-.56.45-.87.96-1.02,1.28l8.93,2.26c.35-1.85-.82-3.64-2.73-4.13Z"/>
            <path class="cls-11" d="M124.78,73.49l9.34,2.36c.26.07.53-.09.6-.36l.02-.07c.03-.13.01-.26-.05-.37-.07-.11-.18-.19-.3-.23l-9.34-2.36s-.08-.02-.12-.02c-.09,0-.17.02-.25.07-.11.07-.19.17-.23.3l-.02.07c-.03.13-.01.26.05.37.07.11.17.19.3.23Z"/>
            <path class="cls-13" d="M131.11,75.71l-1.94-.49c.11.28.33.6.76.71.43.11.86-.05,1.18-.22Z"/>
            <path class="cls-12" d="M128.01,82.8c-.23,0-.46.06-.67.18-.31.18-.53.47-.63.81-.19.71.23,1.45.95,1.65l.62.17s0,0,0,0l2.36.63s0,0,0,0l2.84.77v-.02s0,0,0,0l.34-1.28.35-1.3-5.83-1.57c-.12-.03-.23-.05-.35-.05Z"/>
            <polygon class="cls-4" points="134.92 87.06 135.45 85.08 134.69 84.87 134.42 85.89 134.16 86.86 134.92 87.06"/>
            <path class="cls-14" d="M133.79,77.65c-.23-.42-.24-.88-.22-1.32l-1.69-.43c-.32.25-1.18.83-2.1.6-.9-.23-1.19-1.05-1.28-1.45-.29-.05-.62-.03-.83.19-.2.21-.26.59-.15.97.12.39.38.83.38.84.05.09.06.2,0,.29l-2.09,4.02c-.04.18-.2,1.11.63,1.62.16-.21.35-.38.58-.52.45-.26.97-.33,1.47-.19l.1.03.55-.93c.06-.11.19-.16.31-.14.91.17,1.89-.17,2.5-.87.02-.02.03-.04.05-.06-.38-.2-.9-.61-1.06-1.43l.58-.11c.12.65.58.94.83,1.05.3-.43.62-.88,1.18-1.12.15-.06.26-.14.34-.23.24-.28.18-.38,0-.64-.04-.06-.08-.12-.12-.19ZM132.26,77.35c-.25,0-.45-.2-.45-.45,0-.25.2-.45.45-.45.25,0,.45.2.45.45,0,.25-.2.45-.45.45Z"/>
            <path class="cls-3" d="M118.5,92.44c-.66-.07-1.25-.34-1.73-.75l-.24,1.11,6.84,3.47,2.43-2.98-.33-.09-6.97-.76Z"/>
            <path class="cls-3" d="M133.48,91.44l-.59.04c-.03-.51.57-1.24.94-1.63l-2.17-2.73-.87-.23-.99,3.67h-.03c.06.29.05.59-.03.89l-.03.12,1.44,1.49c.64.67,1.54,1.05,2.47,1.05h6.88s.54-2.84.54-2.84l-6.71-1.09c-.44.45-.86,1.03-.84,1.25Z"/>
            <path class="cls-14" d="M141.65,91.21l-.48,2.49,3.09-2.36-.31-.19c-.72-.44-1.61-.41-2.3.06Z"/>
            <path class="cls-14" d="M127.19,89.64l-.55.26-.75,2.8,1.34.36c.76.2,1.54-.25,1.74-1.01l.2-.75c.11-.42.03-.85-.22-1.2-.4-.55-1.14-.75-1.76-.46Z"/>
            <path class="cls-8" d="M114.92,97.45l1.38,8.08c.33.06,1.04.22,1.85.49l-.19.56c-.81-.27-1.52-.42-1.82-.47l-7.24,7.58,2.39,2.82,8.76-6.69c1.32-1.01,2.16-2.54,2.31-4.19l.77-8.8-6.87-3.49c-.95,1.14-1.44,2.63-1.35,4.12Z"/>
            <path class="cls-1" d="M128.43,86.26l-.72,2.66c.65-.02,1.29.26,1.7.81l.8-2.99-1.79-.48Z"/>
            <path class="cls-13" d="M107.8,113.86c-.35-.05-.7.04-.98.25-.28.22-.45.53-.49.88l-.15,1.52c0,.05-.02.1-.06.14l-1.04,1.43c-.39.54-.3,1.3.21,1.72.45.38,1.13.4,1.6.04l3.93-3-2.47-2.91-.55-.09Z"/>
            <path class="cls-9" d="M132.26,76.45c-.25,0-.45.2-.45.45,0,.25.2.45.45.45.25,0,.45-.2.45-.45,0-.25-.2-.45-.45-.45Z"/>
            <path class="cls-9" d="M144.95,91.05l-.68-.41c-.92-.56-2.07-.52-2.95.09l-6.93-1.13-1.76-2.21,1.02.27s.05.01.08.01c.05,0,.1-.01.15-.04.07-.04.12-.1.14-.18v-.02s1.05.28,1.05.28c.03,0,.05.01.08.01.05,0,.1-.01.15-.04.07-.04.12-.1.14-.18l.27-.99,2.12.57.15-.57-2.12-.57.27-.99c.04-.16-.05-.32-.21-.36l-1.05-.28v-.02c.05-.16-.05-.32-.2-.36l-5.42-1.46.36-.61c1.05.12,2.14-.3,2.84-1.09.16-.18.3-.38.43-.57.27-.39.53-.76.95-.94.23-.1.41-.23.55-.39.53-.62.23-1.07.06-1.35-.03-.05-.06-.1-.09-.15-.14-.26-.16-.57-.15-.9.03,0,.05,0,.08,0,.49,0,.93-.33,1.05-.82l.02-.07c.07-.28.03-.57-.12-.82-.05-.09-.11-.16-.19-.23.52-2.22-.85-4.4-3.13-4.98l-.19-.05c-4.75-1.2-6.37,1.53-6.75,2.37-.2,0-.4.05-.57.15-.25.15-.43.39-.5.67l-.02.07c-.07.28-.03.57.12.82.08.13.18.24.3.32-.4.62-1.21,2.1-.81,3.54.09.31.05.58-.1.8-.38.54-1.4.74-1.77.78-.16.01-.28.15-.27.31,0,.08.12,1.55.94,2.26-1.19.5-2.26,1.29-3.1,2.33l-2.76,3.4c-.74.91-.92,2.1-.47,3.19.1.24.22.45.36.65l-.37,1.67c-1.12,1.28-1.7,2.98-1.59,4.67,0,.01,0,.02,0,.03l1.39,8.15-7.32,7.67-.51-.08c-.51-.08-1.02.05-1.43.37-.41.32-.66.78-.71,1.29l-.14,1.44-.99,1.36c-.57.79-.44,1.9.3,2.53.35.29.78.44,1.21.44.4,0,.8-.13,1.13-.38l4.17-3.19,8.99-6.86c1.45-1.11,2.38-2.79,2.54-4.61l.78-8.91,2.69-3.31.64.17c.17.05.35.07.52.07.88,0,1.68-.58,1.94-1.46l1.19,1.24c.75.78,1.81,1.23,2.89,1.23h7.13c.07-.01.13-.03.18-.07h0s4.05-3.09,4.05-3.09c.08-.06.12-.15.12-.25,0-.1-.06-.19-.14-.24ZM134.69,84.87l.76.21-.53,1.98-.76-.21.26-.97.27-1.02ZM134.2,84.41l-.35,1.3-.34,1.28s0,0,0,0v.02s-2.85-.77-2.85-.77c0,0,0,0,0,0l-2.36-.63s0,0,0,0l-.62-.17c-.71-.19-1.14-.93-.95-1.65.09-.35.32-.64.63-.81.21-.12.44-.18.67-.18.12,0,.23.02.35.05l5.83,1.57ZM133.9,78.48c-.08.09-.19.17-.34.23-.56.24-.88.68-1.18,1.12-.26-.11-.71-.4-.83-1.05l-.58.11c.15.82.68,1.23,1.06,1.43-.02.02-.03.04-.05.06-.61.69-1.59,1.03-2.5.87-.12-.02-.24.03-.31.14l-.55.93-.1-.03c-.5-.13-1.02-.07-1.47.19-.23.13-.43.31-.58.52-.83-.52-.67-1.45-.63-1.62l2.09-4.02c.05-.09.04-.2,0-.29,0,0-.26-.45-.38-.84-.11-.37-.05-.75.15-.97.21-.22.54-.23.83-.19.09.4.38,1.22,1.28,1.45.92.23,1.78-.35,2.1-.6l1.69.43c-.02.44-.01.9.22,1.32.04.07.08.13.12.19.17.26.23.36,0,.64ZM129.17,75.22l1.94.49c-.32.18-.75.33-1.18.22-.43-.11-.65-.44-.76-.71ZM126.55,70.71c1.17-.95,2.9-1.17,4.99-.64l.19.05c1.92.49,3.08,2.27,2.73,4.13l-8.93-2.26c.15-.31.46-.82,1.02-1.28ZM124.42,72.89l.02-.07c.03-.13.11-.24.23-.3.08-.05.16-.07.25-.07.04,0,.08,0,.12.02l9.34,2.36c.13.03.24.11.3.23.07.11.09.25.05.37l-.02.07c-.07.26-.34.42-.6.36l-9.34-2.36c-.13-.03-.24-.11-.3-.23-.07-.11-.09-.25-.05-.37ZM121.94,79.55c.49-.09,1.45-.33,1.9-.99.26-.37.32-.81.19-1.29-.35-1.29.49-2.7.8-3.16l2.5.63s-.06.05-.09.08c-.35.37-.46.96-.29,1.55.1.31.26.64.36.82l-1.95,3.75h0c-.83,0-1.63.13-2.39.37-.66-.22-.94-1.18-1.03-1.76ZM116.86,87.68l2.76-3.4c1.39-1.7,3.4-2.69,5.59-2.74-.04.6.13,1.45.98,1.95-.02.04-.03.09-.04.13-.28,1.03.34,2.09,1.37,2.37l.34.09-.79,2.95s-.09.03-.13.05l-.57.27-4.16-1.32,2.79-2.9-.43-.41-3,3.11-1.51-.48-.18.56,6.14,1.95-.72,2.7-6.74-.74c-.95-.1-1.73-.69-2.09-1.57-.36-.88-.22-1.85.38-2.59ZM106.9,119.86c-.47.36-1.15.34-1.6-.04-.51-.43-.6-1.19-.21-1.72l1.04-1.43s.05-.09.06-.14l.15-1.52c.04-.35.21-.67.49-.88.28-.22.63-.31.98-.25l.55.09,2.47,2.91-3.93,3ZM122.37,105.62c-.15,1.66-.99,3.19-2.31,4.19l-8.76,6.69-2.39-2.82,7.24-7.58c.3.06,1.01.21,1.82.47l.19-.56c-.81-.27-1.51-.42-1.85-.49l-1.38-8.08c-.09-1.49.4-2.97,1.35-4.12l6.87,3.49-.77,8.8ZM123.37,96.27l-6.84-3.47.24-1.11c.47.41,1.07.67,1.73.75l6.97.76.33.09-2.43,2.98ZM129.17,91.29l-.2.75c-.2.76-.98,1.21-1.74,1.01l-1.34-.36.75-2.8.55-.26c.62-.29,1.36-.1,1.76.46.25.35.33.79.22,1.2ZM129.41,89.72c-.41-.55-1.05-.84-1.7-.81l.72-2.66,1.79.48-.8,2.99ZM140.49,94.1h-6.87s0,.01,0,.01c-.93,0-1.82-.38-2.47-1.05l-1.44-1.49.03-.12c.08-.3.09-.6.03-.9h.03s.99-3.66.99-3.66l.87.23,2.17,2.73c-.36.39-.97,1.11-.94,1.63l.59-.04c-.01-.22.41-.8.84-1.25l6.71,1.09-.54,2.83ZM141.18,93.69l.48-2.49c.69-.47,1.58-.5,2.3-.06l.31.19-3.09,2.36Z"/>
          </g>
          <g>
            <polygon class="cls-8" points="177.32 118.94 163.39 118.94 163.87 126.61 176.82 126.61 177.32 118.94"/>
            <path class="cls-14" d="M172.93,107.57c.52-.51.9-1.18,1.13-2,.03-.1.11-.18.21-.21.26-.06.47-.17.63-.31.28-.25.39-.64.27-.92-.03-.08-.09-.16-.16-.23-.12-.13-.29-.23-.47-.29-.64-.05-1.19-.47-1.42-1.06l-.02-.06h-5.14c-.22.64-.81,1.09-1.49,1.12h-.06c-.18.07-.34.17-.46.3-.07.08-.13.15-.16.23-.13.28-.01.68.27.92.16.14.37.25.63.31.1.03.18.1.21.21.23.82.61,1.49,1.13,2,.62.6,1.51.96,2.45.99.94-.03,1.84-.39,2.45-.99ZM172.14,103.59c.25,0,.45.2.45.45s-.2.45-.45.45-.45-.2-.45-.45.2-.45.45-.45ZM169.91,104.51l.73-.73.42.42-.52.52.52.52-.42.42-.73-.73c-.06-.06-.09-.13-.09-.21s.03-.15.09-.21ZM168.37,104.04c0-.25.2-.45.45-.45s.45.2.45.45-.2.45-.45.45-.45-.2-.45-.45ZM169.53,106.22c.52.52,1.38.52,1.9,0l.42.42c-.38.38-.87.57-1.37.57s-.99-.19-1.37-.57l.42-.42Z"/>
            <path class="cls-3" d="M177.59,114.9l.59.04-.22,3.42h2.48l-.24-3.7c-.1-1.48-1.19-2.7-2.65-2.95l-1.29-.23-.11,4.16,1.29,1.55.15-2.29Z"/>
            <path class="cls-3" d="M173.98,111.08l-1.26-.22c-.59.6-1.4.94-2.24.94h0c-.84,0-1.65-.34-2.24-.94l-1.15.22v4.01h6.66l.22-4.01Z"/>
            <path class="cls-8" d="M163.35,118.35h14.01l.02-.31-1.76-2.11c-.05-.06-.07-.13-.07-.2l.11-4.36-1.1-.19-.24,4.22c0,.16-.14.28-.3.28h-7.24c-.16,0-.3-.13-.3-.3v-4.19l-1.03.19-.13,4.34c0,.07-.03.14-.08.19l-1.94,2.14.02.3Z"/>
            <path class="cls-14" d="M170.47,109.15c-.65-.02-1.27-.17-1.83-.44v1.72c.48.5,1.14.78,1.84.78.69,0,1.36-.28,1.84-.78v-1.72c-.56.27-1.18.43-1.83.44,0,0,0,0,0,0s0,0,0,0Z"/>
            <path class="cls-1" d="M186.36,117.33c0-.57.28-1.12.75-1.45h0s.16-.11.16-.11c-.09-1.24-1.13-2.22-2.39-2.22s-2.4,1.08-2.4,2.4v2.4h3.89v-1.02ZM184.87,117.28c-.73,0-1.33-.6-1.33-1.33s.6-1.33,1.33-1.33,1.33.6,1.33,1.33-.6,1.33-1.33,1.33Z"/>
            <path class="cls-11" d="M171.09,97.3c-.07,0-.14,0-.21,0h-.8c-.07,0-.14,0-.21,0v2.94h1.21v-2.94Z"/>
            <path class="cls-11" d="M171.68,97.37v2.86h3.07c-.4-1.47-1.6-2.57-3.07-2.86Z"/>
            <path class="cls-8" d="M165.99,102.48c-.03.14-.07.37-.04.69.1-.06.21-.1.32-.14.03,0,.05-.01.08-.01h.1c.37-.02.69-.23.87-.53h-1.31s-.02,0-.03,0Z"/>
            <path class="cls-11" d="M169.28,97.37c-1.47.3-2.67,1.4-3.07,2.86h3.07v-2.86Z"/>
            <path class="cls-8" d="M173.76,102.48c.18.31.5.51.87.53.03,0,.05,0,.07.01.14.04.27.11.39.18.06-.28.03-.55-.01-.73-.04,0-.08,0-.12,0h-1.19Z"/>
            <path class="cls-11" d="M174.95,101.89c.29,0,.53-.24.53-.53s-.24-.53-.53-.53h-8.94c-.29,0-.53.24-.53.53s.24.53.53.53h8.94Z"/>
            <path class="cls-3" d="M186.37,118.94h-2.44l-2.85,2.24h0s-1.41,1.11-1.41,1.11l-.37-.47,1.29-1.01-.12-1.87h-2.56l-.5,7.58,1.69-1.05c1.07-.67,2.38-.68,3.44-.14l4.97-4.97c-.61-.22-1.06-.76-1.15-1.42Z"/>
            <path class="cls-8" d="M179.43,125.98l-11.28,7,1.24,3.6,12.71-5.48c.71-.31,1.26-.87,1.54-1.59.29-.72.27-1.51-.03-2.22-.1-.24-.23-.46-.39-.66-.91-1.15-2.54-1.43-3.79-.65Z"/>
            <path class="cls-13" d="M178.58,133.6c-.09-.08-.19-.16-.29-.22l-5.03,2.17c1.25.67,3.04.94,4.07,1.05.52.05,1.03-.13,1.4-.51.32-.33.49-.76.47-1.22-.01-.46-.2-.88-.54-1.19l-.08-.07Z"/>
            <path class="cls-14" d="M189.07,116.27l-.07-.05c-.41-.28-.96-.28-1.37.01l-.19.14c-.31.22-.5.58-.5.97v1.37c0,.66.53,1.19,1.19,1.19.58,0,1.07-.41,1.17-.98l.26-1.45c.08-.46-.11-.92-.49-1.19Z"/>
            <path class="cls-11" d="M184.87,115.21c-.41,0-.74.33-.74.74s.33.74.74.74.74-.33.74-.74-.33-.74-.74-.74Z"/>
            <path class="cls-13" d="M163.53,133.15c-.43,0-.84.16-1.16.45l-.08.07c-.34.31-.53.74-.54,1.19-.01.46.16.89.47,1.22.37.38.87.57,1.4.51,1.25-.13,3.46-.49,4.65-1.42l-.7-2.04h-4.05Z"/>
            <path class="cls-8" d="M163.53,132.56h4.17l2.21-1.37-6.49-4.03s0,0,0,0l-1.89-1.18c-.72-.45-1.59-.56-2.39-.3-.8.25-1.46.84-1.79,1.62-.63,1.47.05,3.17,1.51,3.81l3.8,1.64c.28-.11.57-.18.88-.18Z"/>
            <polygon class="cls-8" points="176.33 127.2 164.63 127.2 170.48 130.83 176.33 127.2"/>
            <path class="cls-3" d="M162.54,114.93l.59-.04.15,2.33,1.48-1.63.13-4.1-1.55.29c-1.16.22-2.1,1.05-2.46,2.18l-1.4,4.38h3.28l-.21-3.42Z"/>
            <path class="cls-3" d="M158.96,125.11c.86-.27,1.78-.2,2.58.2l1.43-3.4-.19-2.96h-3.51l-.44,1.37,1.9.88-.25.54-2.13-.99-3.67-1.7-1.43,3.16,4.95,3.24c.23-.14.48-.25.75-.34Z"/>
            <path class="cls-14" d="M152.53,117.68l-.17.02c-.76.08-1.36.67-1.46,1.42l-.1.74c-.11.79.36,1.54,1.11,1.8l.83.28,1.49-3.3c-.3-.65-.97-1.04-1.69-.96Z"/>
            <path class="cls-9" d="M171.85,106.64l-.42-.42c-.52.52-1.38.52-1.9,0l-.42.42c.38.38.87.57,1.37.57s.99-.19,1.37-.57Z"/>
            <path class="cls-9" d="M170.63,105.66l.42-.42-.52-.52.52-.52-.42-.42-.73.73c-.06.06-.09.13-.09.21s.03.15.09.21l.73.73Z"/>
            <path class="cls-9" d="M169.27,104.04c0-.25-.2-.45-.45-.45s-.45.2-.45.45.2.45.45.45.45-.2.45-.45Z"/>
            <path class="cls-9" d="M172.14,104.49c.25,0,.45-.2.45-.45s-.2-.45-.45-.45-.45.2-.45.45.2.45.45.45Z"/>
            <path class="cls-9" d="M184.87,114.62c-.73,0-1.33.6-1.33,1.33s.6,1.33,1.33,1.33,1.33-.6,1.33-1.33-.6-1.33-1.33-1.33ZM184.87,116.69c-.41,0-.74-.33-.74-.74s.33-.74.74-.74.74.33.74.74-.33.74-.74.74Z"/>
            <path class="cls-9" d="M189.41,115.78l-.07-.05c-.45-.31-1.01-.39-1.51-.24-.22-1.43-1.46-2.53-2.96-2.53-1.65,0-2.99,1.34-2.99,2.99v2.4h-.84l-.24-3.73c-.11-1.76-1.41-3.19-3.14-3.5l-4.74-.83v-1.94c.15-.11.3-.23.44-.36.56-.55.98-1.25,1.24-2.1.28-.09.52-.22.71-.39.47-.42.65-1.1.41-1.61-.04-.08-.09-.16-.15-.24.21-.55.14-1.09.06-1.39.27-.2.44-.53.44-.89,0-.47-.29-.87-.69-1.03-.46-2.11-2.32-3.62-4.5-3.62h-.8c-2.18,0-4.04,1.51-4.5,3.62-.4.17-.69.57-.69,1.03,0,.4.21.75.53.95-.07.26-.13.7,0,1.3-.07.09-.13.18-.17.27-.23.52-.06,1.19.41,1.61.19.17.43.3.71.39.26.85.68,1.55,1.24,2.1.13.13.28.25.44.36v1.94l-4.82.91c-1.37.26-2.49,1.25-2.91,2.58l-1.46,4.57h-4.11c-.41-.85-1.32-1.36-2.27-1.26l-.17.02c-1.03.11-1.84.91-1.98,1.93l-.1.74c-.15,1.07.49,2.09,1.51,2.44l1.05.36,4.94,3.24c-.38.34-.69.76-.9,1.24-.76,1.77.06,3.82,1.82,4.58l3.42,1.47s-.05.04-.07.06l-.08.07c-.45.42-.71.99-.73,1.61-.02.62.21,1.2.64,1.65.44.45,1.03.7,1.64.7.08,0,.16,0,.24-.01,1.26-.13,3.46-.49,4.79-1.42l.45,1.3c.03.08.08.14.16.17.04.02.08.03.12.03s.08,0,.12-.02l3.25-1.4c1.35.89,3.5,1.23,4.68,1.35.08,0,.16.01.24.01.62,0,1.21-.25,1.64-.7.43-.45.65-1.03.64-1.65-.02-.62-.28-1.19-.73-1.61l-.08-.07s-.04-.04-.07-.06l3.41-1.47c.86-.37,1.52-1.05,1.86-1.91.34-.87.33-1.81-.04-2.67-.12-.29-.28-.55-.47-.79-.18-.23-.39-.43-.61-.6l5.2-5.19c.81-.06,1.48-.65,1.62-1.46l.26-1.45c.12-.69-.17-1.39-.74-1.78ZM182.47,115.95c0-1.32,1.08-2.4,2.4-2.4s2.3.98,2.39,2.22l-.16.11h0c-.47.33-.75.88-.75,1.45v1.02h-3.89v-2.4ZM182.17,118.94h.81l-1.81,1.43-.09-1.43h1.1ZM176.26,111.48l1.29.23c1.46.26,2.55,1.47,2.65,2.95l.24,3.7h-2.48l.22-3.42-.59-.04-.15,2.29-1.29-1.55.11-4.16ZM171.68,97.37c1.47.3,2.67,1.4,3.07,2.86h-3.07v-2.86ZM169.87,97.3c.07,0,.14,0,.21,0h.8c.07,0,.14,0,.21,0v2.94h-1.21v-2.94ZM169.28,97.37v2.86h-3.07c.4-1.47,1.6-2.57,3.07-2.86ZM165.48,101.36c0-.29.24-.53.53-.53h8.94c.29,0,.53.24.53.53s-.24.53-.53.53h-8.94c-.29,0-.53-.24-.53-.53ZM175.08,103.2c-.12-.07-.25-.13-.39-.18-.02,0-.05-.01-.07-.01-.36-.02-.69-.22-.87-.53h1.19s.08,0,.12,0c.04.18.07.45.01.73ZM167.32,102.48c-.18.31-.51.51-.87.53h-.1s-.05.01-.08.02c-.11.04-.22.09-.32.14-.03-.32,0-.55.04-.69,0,0,.02,0,.03,0h1.31ZM168.03,107.57c-.52-.51-.9-1.18-1.13-2-.03-.1-.11-.18-.21-.21-.26-.06-.47-.17-.63-.31-.28-.25-.39-.64-.27-.92.03-.08.09-.15.16-.23.12-.13.28-.23.46-.29h.06c.68-.03,1.27-.48,1.49-1.12h5.14l.02.06c.23.6.78,1.01,1.42,1.06.18.06.34.17.47.29.07.08.13.15.16.23.13.28.01.68-.27.92-.16.14-.37.25-.63.31-.1.03-.18.1-.21.21-.23.82-.61,1.49-1.13,2-.62.6-1.51.96-2.45.99-.94-.03-1.84-.39-2.45-.99ZM172.32,108.7v1.72c-.48.5-1.14.78-1.84.78-.69,0-1.36-.28-1.84-.78v-1.72c.56.27,1.18.43,1.83.44,0,0,0,0,0,0s0,0,0,0c.65-.02,1.28-.17,1.83-.44ZM167.09,111.08l1.15-.22c.59.6,1.4.94,2.24.94h0c.84,0,1.65-.34,2.24-.94l1.26.22-.22,4.01h-6.66v-4.01ZM165.34,115.72l.13-4.34,1.03-.19v4.19c0,.16.13.3.3.3h7.24c.16,0,.29-.12.3-.28l.24-4.22,1.1.19-.11,4.36c0,.07.02.14.07.2l1.76,2.11-.02.31h-14.01l-.02-.3,1.94-2.14c.05-.05.07-.12.08-.19ZM163.87,126.61l-.48-7.66h13.94l-.5,7.66h-12.95ZM176.33,127.2l-5.85,3.63-5.85-3.63h11.71ZM160.87,113.97c.36-1.12,1.3-1.96,2.46-2.18l1.55-.29-.13,4.1-1.48,1.63-.15-2.33-.59.04.21,3.42h-3.28l1.4-4.38ZM163.26,126.35l-1.19-.74,1-2.37.2,3.12ZM158.66,118.94l-.36,1.12-2.41-1.12h2.77ZM152.73,121.94l-.83-.28c-.75-.26-1.22-1.01-1.11-1.8l.1-.74c.1-.75.71-1.34,1.46-1.42l.17-.02c.72-.08,1.4.31,1.69.96l-1.49,3.3ZM153.27,122.2l1.43-3.16,3.67,1.7,2.13.99.25-.54-1.9-.88.44-1.37h3.51l.19,2.96-1.43,3.4c-.8-.39-1.72-.47-2.58-.2-.26.08-.52.2-.75.34l-4.95-3.24ZM158.86,131.1c-1.47-.63-2.14-2.34-1.51-3.81.33-.77.99-1.36,1.79-1.62.81-.25,1.68-.14,2.39.3l1.89,1.18s0,0,0,0l6.49,4.03-2.21,1.37h-4.17c-.31,0-.6.06-.88.18l-3.8-1.64ZM163.63,136.6c-.52.05-1.03-.13-1.4-.51-.32-.33-.49-.76-.47-1.22.01-.46.2-.88.54-1.19l.08-.07c.32-.29.73-.45,1.16-.45h4.05l.7,2.04c-1.19.93-3.4,1.29-4.65,1.42ZM179.2,134.87c.01.46-.16.89-.47,1.22-.37.38-.88.57-1.4.51-1.03-.11-2.83-.38-4.07-1.05l5.03-2.17c.11.06.2.14.29.22l.08.07c.34.31.53.74.54,1.19ZM183.22,126.63c.16.2.29.42.39.66.31.71.32,1.5.03,2.22-.29.72-.83,1.28-1.54,1.59l-12.71,5.48-1.24-3.6,11.28-7c1.25-.78,2.88-.49,3.79.65ZM182.56,125.34c-1.06-.55-2.37-.53-3.44.14l-1.69,1.05.5-7.58h2.56l.12,1.87-1.29,1.01.37.47,1.41-1.11h0s2.85-2.24,2.85-2.24h2.44c.09.66.55,1.2,1.15,1.42l-4.97,4.97ZM189.57,117.46l-.26,1.45c-.1.57-.59.98-1.17.98-.66,0-1.19-.53-1.19-1.19v-1.37c0-.38.19-.74.5-.97l.19-.14c.41-.29.95-.29,1.37-.01l.07.05c.38.26.58.73.49,1.19Z"/>
          </g>
          <g>
            <rect class="cls-11" x="193.43" y="131.51" width="1.32" height=".53"/>
            <rect class="cls-11" x="201.62" y="131.51" width="1.32" height=".53"/>
            <path class="cls-12" d="M203.53,132.33c0,.16-.13.3-.3.3h-1.91c-.16,0-.3-.13-.3-.3v-.83h-5.69v.83c0,.16-.13.3-.3.3h-1.91c-.16,0-.3-.13-.3-.3v-.83h-2.45v5.11h15.59v-5.11h-2.45v.83Z"/>
            <rect class="cls-11" x="193.43" y="130.38" width="1.32" height=".53"/>
            <rect class="cls-11" x="201.62" y="130.38" width="1.32" height=".53"/>
            <path class="cls-12" d="M194.56,127.39h-4.18v3.53h2.45v-.83c0-.16.13-.3.3-.3h1.91c.16,0,.3.13.3.3v.83h5.69v-.83c0-.16.13-.3.3-.3h1.91c.16,0,.3.13.3.3v.83h2.45v-3.53h-11.41Z"/>
            <path class="cls-9" d="M206.27,126.8h-4.18v-.34c0-1.13-.92-2.05-2.05-2.05h-3.73c-1.13,0-2.05.92-2.05,2.05v.34h-4.18c-.16,0-.3.13-.3.3v9.82c0,.16.13.3.3.3h16.19c.16,0,.3-.13.3-.3v-9.82c0-.16-.13-.3-.3-.3ZM194.86,126.46c0-.8.65-1.45,1.45-1.45h3.73c.8,0,1.45.65,1.45,1.45v.34h-6.64v-.34ZM205.98,136.61h-15.59v-5.11h2.45v.83c0,.16.13.3.3.3h1.91c.16,0,.3-.13.3-.3v-.83h5.69v.83c0,.16.13.3.3.3h1.91c.16,0,.3-.13.3-.3v-.83h2.45v5.11ZM194.75,131.51v.53h-1.32v-.53h1.32ZM193.43,130.91v-.53h1.32v.53h-1.32ZM202.94,131.51v.53h-1.32v-.53h1.32ZM201.62,130.91v-.53h1.32v.53h-1.32ZM205.98,130.91h-2.45v-.83c0-.16-.13-.3-.3-.3h-1.91c-.16,0-.3.13-.3.3v.83h-5.69v-.83c0-.16-.13-.3-.3-.3h-1.91c-.16,0-.3.13-.3.3v.83h-2.45v-3.53h15.59v3.53Z"/>
          </g>
          <g>
            <polygon class="cls-4" points="43.8 256.7 39.55 256.7 38.33 261.94 45.01 261.94 43.8 256.7"/>
            <polygon class="cls-13" points="45.15 262.53 38.2 262.53 36.23 271.06 47.12 271.06 45.15 262.53"/>
            <path class="cls-13" d="M42.95,253c-.14-.6-.66-1.01-1.27-1.01s-1.13.42-1.27,1.01l-.72,3.11h3.98l-.72-3.11Z"/>
            <path class="cls-13" d="M47.56,271.65h-11.76c-.95,0-1.75.7-1.89,1.61h15.54c-.14-.91-.94-1.61-1.89-1.61Z"/>
            <path class="cls-9" d="M47.73,271.07l-4.21-18.2c-.2-.87-.96-1.47-1.85-1.47s-1.65.6-1.85,1.47l-4.21,18.2c-1.3.09-2.33,1.17-2.33,2.49,0,.16.13.3.3.3h16.18c.16,0,.3-.13.3-.3,0-1.32-1.03-2.4-2.33-2.49ZM40.4,253c.14-.59.66-1.01,1.27-1.01s1.13.42,1.27,1.01l.72,3.11h-3.98l.72-3.11ZM39.55,256.7h4.26l1.21,5.24h-6.68l1.21-5.24ZM38.2,262.53h6.95l1.97,8.52h-10.9l1.97-8.52ZM33.9,273.26c.14-.91.94-1.61,1.89-1.61h11.76c.95,0,1.75.7,1.89,1.61h-15.54Z"/>
          </g>
          <g>
            <polygon class="cls-8" points="116.56 168.4 111.47 168.4 107.81 174.79 107.31 175.66 109.75 175.66 111.44 175.66 112.39 175.66 116.06 169.27 116.56 168.4"/>
            <polygon class="cls-11" points="122.32 168.4 117.24 168.4 113.57 174.79 113.08 175.66 118.16 175.66 121.82 169.27 122.32 168.4"/>
            <polygon class="cls-11" points="133.85 168.4 128.77 168.4 125.1 174.79 124.61 175.66 129.69 175.66 133.35 169.27 133.85 168.4"/>
            <rect class="cls-13" x="108.55" y="183.13" width="4.08" height=".88"/>
            <rect class="cls-13" x="110.05" y="176.26" width="1.1" height="6.28"/>
            <polygon class="cls-11" points="110.79 168.4 107.1 168.4 107.1 174.85 109.78 170.16 110.79 168.4"/>
            <polygon class="cls-8" points="128.09 168.4 123 168.4 119.34 174.79 118.84 175.66 123.92 175.66 127.59 169.27 128.09 168.4"/>
            <polygon class="cls-11" points="136.14 175.66 137.18 175.66 139.83 175.66 139.83 169.21 137.14 173.9 136.14 175.66"/>
            <rect class="cls-13" x="135.78" y="176.26" width="1.1" height="6.28"/>
            <rect class="cls-13" x="134.29" y="183.13" width="4.08" height=".88"/>
            <polygon class="cls-8" points="139.12 169.27 139.62 168.4 134.53 168.4 130.87 174.79 130.37 175.66 135.45 175.66 139.12 169.27"/>
            <path class="cls-9" d="M140.42,168.1s0-.04,0-.07c0,0,0,0,0-.01,0-.02-.01-.04-.03-.06,0,0,0,0,0,0,0,0,0,0,0,0-.01-.02-.02-.04-.04-.05,0,0,0,0,0,0-.02-.02-.03-.03-.05-.04,0,0,0,0-.01,0-.02-.01-.04-.02-.06-.03,0,0,0,0,0,0,0,0,0,0,0,0-.02,0-.05,0-.07,0,0,0,0,0,0,0h-33.33c-.16,0-.3.13-.3.3v7.86s0,0,0,0c0,0,0,0,0,0,0,.02,0,.04,0,.07,0,0,0,0,0,.01,0,.02.01.04.03.06,0,0,0,0,0,0,0,0,0,0,0,0,.01.02.02.04.04.05,0,0,0,0,0,0,.02.02.03.03.05.04,0,0,0,0,.01,0,.02.01.04.02.06.03,0,0,0,0,0,0,0,0,0,0,0,0,.03,0,.05.01.08.01,0,0,0,0,0,0h2.65v6.28h-1.2c-.16,0-.3.13-.3.3v1.47c0,.16.13.3.3.3h4.67c.16,0,.3-.13.3-.3v-1.47c0-.16-.13-.3-.3-.3h-1.2v-6.28h23.46v6.28h-1.2c-.16,0-.3.13-.3.3v1.47c0,.16.13.3.3.3h4.67c.16,0,.3-.13.3-.3v-1.47c0-.16-.13-.3-.3-.3h-1.2v-6.28h2.65c.16,0,.3-.13.3-.3v-7.86s0,0,0,0c0,0,0,0,0,0ZM107.1,168.4h3.69l-1.01,1.76-2.69,4.69v-6.45ZM112.64,183.13v.88h-4.08v-.88h4.08ZM110.05,182.54v-6.28h1.1v6.28h-1.1ZM112.39,175.66h-5.08l.5-.87,3.66-6.39h5.08l-.5.87-3.66,6.39ZM118.16,175.66h-5.08l.5-.87,3.66-6.39h5.08l-.5.87-3.66,6.39ZM123.92,175.66h-5.08l.5-.87,3.66-6.39h5.08l-.5.87-3.66,6.39ZM129.69,175.66h-5.08l.5-.87,3.66-6.39h5.08l-.5.87-3.66,6.39ZM130.37,175.66l.5-.87,3.66-6.39h5.08l-.5.87-3.66,6.39h-5.08ZM135.78,176.26h1.1v6.28h-1.1v-6.28ZM138.37,183.13v.88h-4.08v-.88h4.08ZM139.83,175.66h-3.69l1.01-1.76,2.69-4.69v6.45Z"/>
          </g>
        </g>
      </g>
    </g>
  </g>
</svg>